<svg xmlns="http://www.w3.org/2000/svg" width="880" height="640" viewBox="0 0 880 640">
<rect width="100%" height="100%" fill="white"/>
<text x="24" y="36" font-family="Arial, sans-serif" font-size="16" font-weight="700">1.</text>
<line x1="48.0" y1="38" x2="48.0" y2="156" stroke="#cfd8dc" stroke-width="1"/>
<line x1="64.0" y1="38" x2="64.0" y2="156" stroke="#cfd8dc" stroke-width="1"/>
<line x1="80.0" y1="38" x2="80.0" y2="156" stroke="#cfd8dc" stroke-width="1"/>
<line x1="96.0" y1="38" x2="96.0" y2="156" stroke="#cfd8dc" stroke-width="1"/>
<line x1="112.0" y1="38" x2="112.0" y2="156" stroke="#cfd8dc" stroke-width="1"/>
<line x1="128.0" y1="38" x2="128.0" y2="156" stroke="#cfd8dc" stroke-width="1"/>
<line x1="144.0" y1="38" x2="144.0" y2="156" stroke="#cfd8dc" stroke-width="1"/>
<line x1="160.0" y1="38" x2="160.0" y2="156" stroke="#cfd8dc" stroke-width="1"/>
<line x1="176.0" y1="38" x2="176.0" y2="156" stroke="#cfd8dc" stroke-width="1"/>
<line x1="192.0" y1="38" x2="192.0" y2="156" stroke="#cfd8dc" stroke-width="1"/>
<line x1="208.0" y1="38" x2="208.0" y2="156" stroke="#cfd8dc" stroke-width="1"/>
<line x1="48" y1="38.0" x2="208" y2="38.0" stroke="#cfd8dc" stroke-width="1"/>
<line x1="48" y1="52.8" x2="208" y2="52.8" stroke="#cfd8dc" stroke-width="1"/>
<line x1="48" y1="67.5" x2="208" y2="67.5" stroke="#cfd8dc" stroke-width="1"/>
<line x1="48" y1="82.2" x2="208" y2="82.2" stroke="#cfd8dc" stroke-width="1"/>
<line x1="48" y1="97.0" x2="208" y2="97.0" stroke="#cfd8dc" stroke-width="1"/>
<line x1="48" y1="111.8" x2="208" y2="111.8" stroke="#cfd8dc" stroke-width="1"/>
<line x1="48" y1="126.5" x2="208" y2="126.5" stroke="#cfd8dc" stroke-width="1"/>
<line x1="48" y1="141.2" x2="208" y2="141.2" stroke="#cfd8dc" stroke-width="1"/>
<line x1="48" y1="156.0" x2="208" y2="156.0" stroke="#cfd8dc" stroke-width="1"/>
<line x1="128.0" y1="38" x2="128.0" y2="156" stroke="#263238" stroke-width="1.8"/>
<line x1="48" y1="97.0" x2="208" y2="97.0" stroke="#263238" stroke-width="1.8"/>
<text x="200.0" y="91.0" font-family="Arial, sans-serif" font-size="11">x</text>
<text x="134.0" y="50.0" font-family="Arial, sans-serif" font-size="11">y</text>
<text x="234" y="36" font-family="Arial, sans-serif" font-size="16" font-weight="700">2.</text>
<line x1="258.0" y1="38" x2="258.0" y2="156" stroke="#cfd8dc" stroke-width="1"/>
<line x1="274.0" y1="38" x2="274.0" y2="156" stroke="#cfd8dc" stroke-width="1"/>
<line x1="290.0" y1="38" x2="290.0" y2="156" stroke="#cfd8dc" stroke-width="1"/>
<line x1="306.0" y1="38" x2="306.0" y2="156" stroke="#cfd8dc" stroke-width="1"/>
<line x1="322.0" y1="38" x2="322.0" y2="156" stroke="#cfd8dc" stroke-width="1"/>
<line x1="338.0" y1="38" x2="338.0" y2="156" stroke="#cfd8dc" stroke-width="1"/>
<line x1="354.0" y1="38" x2="354.0" y2="156" stroke="#cfd8dc" stroke-width="1"/>
<line x1="370.0" y1="38" x2="370.0" y2="156" stroke="#cfd8dc" stroke-width="1"/>
<line x1="386.0" y1="38" x2="386.0" y2="156" stroke="#cfd8dc" stroke-width="1"/>
<line x1="402.0" y1="38" x2="402.0" y2="156" stroke="#cfd8dc" stroke-width="1"/>
<line x1="418.0" y1="38" x2="418.0" y2="156" stroke="#cfd8dc" stroke-width="1"/>
<line x1="258" y1="38.0" x2="418" y2="38.0" stroke="#cfd8dc" stroke-width="1"/>
<line x1="258" y1="52.8" x2="418" y2="52.8" stroke="#cfd8dc" stroke-width="1"/>
<line x1="258" y1="67.5" x2="418" y2="67.5" stroke="#cfd8dc" stroke-width="1"/>
<line x1="258" y1="82.2" x2="418" y2="82.2" stroke="#cfd8dc" stroke-width="1"/>
<line x1="258" y1="97.0" x2="418" y2="97.0" stroke="#cfd8dc" stroke-width="1"/>
<line x1="258" y1="111.8" x2="418" y2="111.8" stroke="#cfd8dc" stroke-width="1"/>
<line x1="258" y1="126.5" x2="418" y2="126.5" stroke="#cfd8dc" stroke-width="1"/>
<line x1="258" y1="141.2" x2="418" y2="141.2" stroke="#cfd8dc" stroke-width="1"/>
<line x1="258" y1="156.0" x2="418" y2="156.0" stroke="#cfd8dc" stroke-width="1"/>
<line x1="338.0" y1="38" x2="338.0" y2="156" stroke="#263238" stroke-width="1.8"/>
<line x1="258" y1="97.0" x2="418" y2="97.0" stroke="#263238" stroke-width="1.8"/>
<text x="410.0" y="91.0" font-family="Arial, sans-serif" font-size="11">x</text>
<text x="344.0" y="50.0" font-family="Arial, sans-serif" font-size="11">y</text>
<text x="444" y="36" font-family="Arial, sans-serif" font-size="16" font-weight="700">3.</text>
<line x1="468.0" y1="38" x2="468.0" y2="156" stroke="#cfd8dc" stroke-width="1"/>
<line x1="484.0" y1="38" x2="484.0" y2="156" stroke="#cfd8dc" stroke-width="1"/>
<line x1="500.0" y1="38" x2="500.0" y2="156" stroke="#cfd8dc" stroke-width="1"/>
<line x1="516.0" y1="38" x2="516.0" y2="156" stroke="#cfd8dc" stroke-width="1"/>
<line x1="532.0" y1="38" x2="532.0" y2="156" stroke="#cfd8dc" stroke-width="1"/>
<line x1="548.0" y1="38" x2="548.0" y2="156" stroke="#cfd8dc" stroke-width="1"/>
<line x1="564.0" y1="38" x2="564.0" y2="156" stroke="#cfd8dc" stroke-width="1"/>
<line x1="580.0" y1="38" x2="580.0" y2="156" stroke="#cfd8dc" stroke-width="1"/>
<line x1="596.0" y1="38" x2="596.0" y2="156" stroke="#cfd8dc" stroke-width="1"/>
<line x1="612.0" y1="38" x2="612.0" y2="156" stroke="#cfd8dc" stroke-width="1"/>
<line x1="628.0" y1="38" x2="628.0" y2="156" stroke="#cfd8dc" stroke-width="1"/>
<line x1="468" y1="38.0" x2="628" y2="38.0" stroke="#cfd8dc" stroke-width="1"/>
<line x1="468" y1="52.8" x2="628" y2="52.8" stroke="#cfd8dc" stroke-width="1"/>
<line x1="468" y1="67.5" x2="628" y2="67.5" stroke="#cfd8dc" stroke-width="1"/>
<line x1="468" y1="82.2" x2="628" y2="82.2" stroke="#cfd8dc" stroke-width="1"/>
<line x1="468" y1="97.0" x2="628" y2="97.0" stroke="#cfd8dc" stroke-width="1"/>
<line x1="468" y1="111.8" x2="628" y2="111.8" stroke="#cfd8dc" stroke-width="1"/>
<line x1="468" y1="126.5" x2="628" y2="126.5" stroke="#cfd8dc" stroke-width="1"/>
<line x1="468" y1="141.2" x2="628" y2="141.2" stroke="#cfd8dc" stroke-width="1"/>
<line x1="468" y1="156.0" x2="628" y2="156.0" stroke="#cfd8dc" stroke-width="1"/>
<line x1="548.0" y1="38" x2="548.0" y2="156" stroke="#263238" stroke-width="1.8"/>
<line x1="468" y1="97.0" x2="628" y2="97.0" stroke="#263238" stroke-width="1.8"/>
<text x="620.0" y="91.0" font-family="Arial, sans-serif" font-size="11">x</text>
<text x="554.0" y="50.0" font-family="Arial, sans-serif" font-size="11">y</text>
<text x="654" y="36" font-family="Arial, sans-serif" font-size="16" font-weight="700">4.</text>
<line x1="678.0" y1="38" x2="678.0" y2="156" stroke="#cfd8dc" stroke-width="1"/>
<line x1="694.0" y1="38" x2="694.0" y2="156" stroke="#cfd8dc" stroke-width="1"/>
<line x1="710.0" y1="38" x2="710.0" y2="156" stroke="#cfd8dc" stroke-width="1"/>
<line x1="726.0" y1="38" x2="726.0" y2="156" stroke="#cfd8dc" stroke-width="1"/>
<line x1="742.0" y1="38" x2="742.0" y2="156" stroke="#cfd8dc" stroke-width="1"/>
<line x1="758.0" y1="38" x2="758.0" y2="156" stroke="#cfd8dc" stroke-width="1"/>
<line x1="774.0" y1="38" x2="774.0" y2="156" stroke="#cfd8dc" stroke-width="1"/>
<line x1="790.0" y1="38" x2="790.0" y2="156" stroke="#cfd8dc" stroke-width="1"/>
<line x1="806.0" y1="38" x2="806.0" y2="156" stroke="#cfd8dc" stroke-width="1"/>
<line x1="822.0" y1="38" x2="822.0" y2="156" stroke="#cfd8dc" stroke-width="1"/>
<line x1="838.0" y1="38" x2="838.0" y2="156" stroke="#cfd8dc" stroke-width="1"/>
<line x1="678" y1="38.0" x2="838" y2="38.0" stroke="#cfd8dc" stroke-width="1"/>
<line x1="678" y1="52.8" x2="838" y2="52.8" stroke="#cfd8dc" stroke-width="1"/>
<line x1="678" y1="67.5" x2="838" y2="67.5" stroke="#cfd8dc" stroke-width="1"/>
<line x1="678" y1="82.2" x2="838" y2="82.2" stroke="#cfd8dc" stroke-width="1"/>
<line x1="678" y1="97.0" x2="838" y2="97.0" stroke="#cfd8dc" stroke-width="1"/>
<line x1="678" y1="111.8" x2="838" y2="111.8" stroke="#cfd8dc" stroke-width="1"/>
<line x1="678" y1="126.5" x2="838" y2="126.5" stroke="#cfd8dc" stroke-width="1"/>
<line x1="678" y1="141.2" x2="838" y2="141.2" stroke="#cfd8dc" stroke-width="1"/>
<line x1="678" y1="156.0" x2="838" y2="156.0" stroke="#cfd8dc" stroke-width="1"/>
<line x1="758.0" y1="38" x2="758.0" y2="156" stroke="#263238" stroke-width="1.8"/>
<line x1="678" y1="97.0" x2="838" y2="97.0" stroke="#263238" stroke-width="1.8"/>
<text x="830.0" y="91.0" font-family="Arial, sans-serif" font-size="11">x</text>
<text x="764.0" y="50.0" font-family="Arial, sans-serif" font-size="11">y</text>
<text x="24" y="186" font-family="Arial, sans-serif" font-size="16" font-weight="700">5.</text>
<line x1="48.0" y1="188" x2="48.0" y2="306" stroke="#cfd8dc" stroke-width="1"/>
<line x1="64.0" y1="188" x2="64.0" y2="306" stroke="#cfd8dc" stroke-width="1"/>
<line x1="80.0" y1="188" x2="80.0" y2="306" stroke="#cfd8dc" stroke-width="1"/>
<line x1="96.0" y1="188" x2="96.0" y2="306" stroke="#cfd8dc" stroke-width="1"/>
<line x1="112.0" y1="188" x2="112.0" y2="306" stroke="#cfd8dc" stroke-width="1"/>
<line x1="128.0" y1="188" x2="128.0" y2="306" stroke="#cfd8dc" stroke-width="1"/>
<line x1="144.0" y1="188" x2="144.0" y2="306" stroke="#cfd8dc" stroke-width="1"/>
<line x1="160.0" y1="188" x2="160.0" y2="306" stroke="#cfd8dc" stroke-width="1"/>
<line x1="176.0" y1="188" x2="176.0" y2="306" stroke="#cfd8dc" stroke-width="1"/>
<line x1="192.0" y1="188" x2="192.0" y2="306" stroke="#cfd8dc" stroke-width="1"/>
<line x1="208.0" y1="188" x2="208.0" y2="306" stroke="#cfd8dc" stroke-width="1"/>
<line x1="48" y1="188.0" x2="208" y2="188.0" stroke="#cfd8dc" stroke-width="1"/>
<line x1="48" y1="202.8" x2="208" y2="202.8" stroke="#cfd8dc" stroke-width="1"/>
<line x1="48" y1="217.5" x2="208" y2="217.5" stroke="#cfd8dc" stroke-width="1"/>
<line x1="48" y1="232.2" x2="208" y2="232.2" stroke="#cfd8dc" stroke-width="1"/>
<line x1="48" y1="247.0" x2="208" y2="247.0" stroke="#cfd8dc" stroke-width="1"/>
<line x1="48" y1="261.8" x2="208" y2="261.8" stroke="#cfd8dc" stroke-width="1"/>
<line x1="48" y1="276.5" x2="208" y2="276.5" stroke="#cfd8dc" stroke-width="1"/>
<line x1="48" y1="291.2" x2="208" y2="291.2" stroke="#cfd8dc" stroke-width="1"/>
<line x1="48" y1="306.0" x2="208" y2="306.0" stroke="#cfd8dc" stroke-width="1"/>
<line x1="128.0" y1="188" x2="128.0" y2="306" stroke="#263238" stroke-width="1.8"/>
<line x1="48" y1="247.0" x2="208" y2="247.0" stroke="#263238" stroke-width="1.8"/>
<text x="200.0" y="241.0" font-family="Arial, sans-serif" font-size="11">x</text>
<text x="134.0" y="200.0" font-family="Arial, sans-serif" font-size="11">y</text>
<text x="234" y="186" font-family="Arial, sans-serif" font-size="16" font-weight="700">6.</text>
<line x1="258.0" y1="188" x2="258.0" y2="306" stroke="#cfd8dc" stroke-width="1"/>
<line x1="274.0" y1="188" x2="274.0" y2="306" stroke="#cfd8dc" stroke-width="1"/>
<line x1="290.0" y1="188" x2="290.0" y2="306" stroke="#cfd8dc" stroke-width="1"/>
<line x1="306.0" y1="188" x2="306.0" y2="306" stroke="#cfd8dc" stroke-width="1"/>
<line x1="322.0" y1="188" x2="322.0" y2="306" stroke="#cfd8dc" stroke-width="1"/>
<line x1="338.0" y1="188" x2="338.0" y2="306" stroke="#cfd8dc" stroke-width="1"/>
<line x1="354.0" y1="188" x2="354.0" y2="306" stroke="#cfd8dc" stroke-width="1"/>
<line x1="370.0" y1="188" x2="370.0" y2="306" stroke="#cfd8dc" stroke-width="1"/>
<line x1="386.0" y1="188" x2="386.0" y2="306" stroke="#cfd8dc" stroke-width="1"/>
<line x1="402.0" y1="188" x2="402.0" y2="306" stroke="#cfd8dc" stroke-width="1"/>
<line x1="418.0" y1="188" x2="418.0" y2="306" stroke="#cfd8dc" stroke-width="1"/>
<line x1="258" y1="188.0" x2="418" y2="188.0" stroke="#cfd8dc" stroke-width="1"/>
<line x1="258" y1="202.8" x2="418" y2="202.8" stroke="#cfd8dc" stroke-width="1"/>
<line x1="258" y1="217.5" x2="418" y2="217.5" stroke="#cfd8dc" stroke-width="1"/>
<line x1="258" y1="232.2" x2="418" y2="232.2" stroke="#cfd8dc" stroke-width="1"/>
<line x1="258" y1="247.0" x2="418" y2="247.0" stroke="#cfd8dc" stroke-width="1"/>
<line x1="258" y1="261.8" x2="418" y2="261.8" stroke="#cfd8dc" stroke-width="1"/>
<line x1="258" y1="276.5" x2="418" y2="276.5" stroke="#cfd8dc" stroke-width="1"/>
<line x1="258" y1="291.2" x2="418" y2="291.2" stroke="#cfd8dc" stroke-width="1"/>
<line x1="258" y1="306.0" x2="418" y2="306.0" stroke="#cfd8dc" stroke-width="1"/>
<line x1="338.0" y1="188" x2="338.0" y2="306" stroke="#263238" stroke-width="1.8"/>
<line x1="258" y1="247.0" x2="418" y2="247.0" stroke="#263238" stroke-width="1.8"/>
<text x="410.0" y="241.0" font-family="Arial, sans-serif" font-size="11">x</text>
<text x="344.0" y="200.0" font-family="Arial, sans-serif" font-size="11">y</text>
<text x="444" y="186" font-family="Arial, sans-serif" font-size="16" font-weight="700">7.</text>
<line x1="468.0" y1="188" x2="468.0" y2="306" stroke="#cfd8dc" stroke-width="1"/>
<line x1="484.0" y1="188" x2="484.0" y2="306" stroke="#cfd8dc" stroke-width="1"/>
<line x1="500.0" y1="188" x2="500.0" y2="306" stroke="#cfd8dc" stroke-width="1"/>
<line x1="516.0" y1="188" x2="516.0" y2="306" stroke="#cfd8dc" stroke-width="1"/>
<line x1="532.0" y1="188" x2="532.0" y2="306" stroke="#cfd8dc" stroke-width="1"/>
<line x1="548.0" y1="188" x2="548.0" y2="306" stroke="#cfd8dc" stroke-width="1"/>
<line x1="564.0" y1="188" x2="564.0" y2="306" stroke="#cfd8dc" stroke-width="1"/>
<line x1="580.0" y1="188" x2="580.0" y2="306" stroke="#cfd8dc" stroke-width="1"/>
<line x1="596.0" y1="188" x2="596.0" y2="306" stroke="#cfd8dc" stroke-width="1"/>
<line x1="612.0" y1="188" x2="612.0" y2="306" stroke="#cfd8dc" stroke-width="1"/>
<line x1="628.0" y1="188" x2="628.0" y2="306" stroke="#cfd8dc" stroke-width="1"/>
<line x1="468" y1="188.0" x2="628" y2="188.0" stroke="#cfd8dc" stroke-width="1"/>
<line x1="468" y1="202.8" x2="628" y2="202.8" stroke="#cfd8dc" stroke-width="1"/>
<line x1="468" y1="217.5" x2="628" y2="217.5" stroke="#cfd8dc" stroke-width="1"/>
<line x1="468" y1="232.2" x2="628" y2="232.2" stroke="#cfd8dc" stroke-width="1"/>
<line x1="468" y1="247.0" x2="628" y2="247.0" stroke="#cfd8dc" stroke-width="1"/>
<line x1="468" y1="261.8" x2="628" y2="261.8" stroke="#cfd8dc" stroke-width="1"/>
<line x1="468" y1="276.5" x2="628" y2="276.5" stroke="#cfd8dc" stroke-width="1"/>
<line x1="468" y1="291.2" x2="628" y2="291.2" stroke="#cfd8dc" stroke-width="1"/>
<line x1="468" y1="306.0" x2="628" y2="306.0" stroke="#cfd8dc" stroke-width="1"/>
<line x1="548.0" y1="188" x2="548.0" y2="306" stroke="#263238" stroke-width="1.8"/>
<line x1="468" y1="247.0" x2="628" y2="247.0" stroke="#263238" stroke-width="1.8"/>
<text x="620.0" y="241.0" font-family="Arial, sans-serif" font-size="11">x</text>
<text x="554.0" y="200.0" font-family="Arial, sans-serif" font-size="11">y</text>
<text x="654" y="186" font-family="Arial, sans-serif" font-size="16" font-weight="700">8.</text>
<line x1="678.0" y1="188" x2="678.0" y2="306" stroke="#cfd8dc" stroke-width="1"/>
<line x1="694.0" y1="188" x2="694.0" y2="306" stroke="#cfd8dc" stroke-width="1"/>
<line x1="710.0" y1="188" x2="710.0" y2="306" stroke="#cfd8dc" stroke-width="1"/>
<line x1="726.0" y1="188" x2="726.0" y2="306" stroke="#cfd8dc" stroke-width="1"/>
<line x1="742.0" y1="188" x2="742.0" y2="306" stroke="#cfd8dc" stroke-width="1"/>
<line x1="758.0" y1="188" x2="758.0" y2="306" stroke="#cfd8dc" stroke-width="1"/>
<line x1="774.0" y1="188" x2="774.0" y2="306" stroke="#cfd8dc" stroke-width="1"/>
<line x1="790.0" y1="188" x2="790.0" y2="306" stroke="#cfd8dc" stroke-width="1"/>
<line x1="806.0" y1="188" x2="806.0" y2="306" stroke="#cfd8dc" stroke-width="1"/>
<line x1="822.0" y1="188" x2="822.0" y2="306" stroke="#cfd8dc" stroke-width="1"/>
<line x1="838.0" y1="188" x2="838.0" y2="306" stroke="#cfd8dc" stroke-width="1"/>
<line x1="678" y1="188.0" x2="838" y2="188.0" stroke="#cfd8dc" stroke-width="1"/>
<line x1="678" y1="202.8" x2="838" y2="202.8" stroke="#cfd8dc" stroke-width="1"/>
<line x1="678" y1="217.5" x2="838" y2="217.5" stroke="#cfd8dc" stroke-width="1"/>
<line x1="678" y1="232.2" x2="838" y2="232.2" stroke="#cfd8dc" stroke-width="1"/>
<line x1="678" y1="247.0" x2="838" y2="247.0" stroke="#cfd8dc" stroke-width="1"/>
<line x1="678" y1="261.8" x2="838" y2="261.8" stroke="#cfd8dc" stroke-width="1"/>
<line x1="678" y1="276.5" x2="838" y2="276.5" stroke="#cfd8dc" stroke-width="1"/>
<line x1="678" y1="291.2" x2="838" y2="291.2" stroke="#cfd8dc" stroke-width="1"/>
<line x1="678" y1="306.0" x2="838" y2="306.0" stroke="#cfd8dc" stroke-width="1"/>
<line x1="758.0" y1="188" x2="758.0" y2="306" stroke="#263238" stroke-width="1.8"/>
<line x1="678" y1="247.0" x2="838" y2="247.0" stroke="#263238" stroke-width="1.8"/>
<text x="830.0" y="241.0" font-family="Arial, sans-serif" font-size="11">x</text>
<text x="764.0" y="200.0" font-family="Arial, sans-serif" font-size="11">y</text>
<text x="24" y="336" font-family="Arial, sans-serif" font-size="16" font-weight="700">9.</text>
<line x1="48.0" y1="338" x2="48.0" y2="456" stroke="#cfd8dc" stroke-width="1"/>
<line x1="64.0" y1="338" x2="64.0" y2="456" stroke="#cfd8dc" stroke-width="1"/>
<line x1="80.0" y1="338" x2="80.0" y2="456" stroke="#cfd8dc" stroke-width="1"/>
<line x1="96.0" y1="338" x2="96.0" y2="456" stroke="#cfd8dc" stroke-width="1"/>
<line x1="112.0" y1="338" x2="112.0" y2="456" stroke="#cfd8dc" stroke-width="1"/>
<line x1="128.0" y1="338" x2="128.0" y2="456" stroke="#cfd8dc" stroke-width="1"/>
<line x1="144.0" y1="338" x2="144.0" y2="456" stroke="#cfd8dc" stroke-width="1"/>
<line x1="160.0" y1="338" x2="160.0" y2="456" stroke="#cfd8dc" stroke-width="1"/>
<line x1="176.0" y1="338" x2="176.0" y2="456" stroke="#cfd8dc" stroke-width="1"/>
<line x1="192.0" y1="338" x2="192.0" y2="456" stroke="#cfd8dc" stroke-width="1"/>
<line x1="208.0" y1="338" x2="208.0" y2="456" stroke="#cfd8dc" stroke-width="1"/>
<line x1="48" y1="338.0" x2="208" y2="338.0" stroke="#cfd8dc" stroke-width="1"/>
<line x1="48" y1="352.8" x2="208" y2="352.8" stroke="#cfd8dc" stroke-width="1"/>
<line x1="48" y1="367.5" x2="208" y2="367.5" stroke="#cfd8dc" stroke-width="1"/>
<line x1="48" y1="382.2" x2="208" y2="382.2" stroke="#cfd8dc" stroke-width="1"/>
<line x1="48" y1="397.0" x2="208" y2="397.0" stroke="#cfd8dc" stroke-width="1"/>
<line x1="48" y1="411.8" x2="208" y2="411.8" stroke="#cfd8dc" stroke-width="1"/>
<line x1="48" y1="426.5" x2="208" y2="426.5" stroke="#cfd8dc" stroke-width="1"/>
<line x1="48" y1="441.2" x2="208" y2="441.2" stroke="#cfd8dc" stroke-width="1"/>
<line x1="48" y1="456.0" x2="208" y2="456.0" stroke="#cfd8dc" stroke-width="1"/>
<line x1="128.0" y1="338" x2="128.0" y2="456" stroke="#263238" stroke-width="1.8"/>
<line x1="48" y1="397.0" x2="208" y2="397.0" stroke="#263238" stroke-width="1.8"/>
<text x="200.0" y="391.0" font-family="Arial, sans-serif" font-size="11">x</text>
<text x="134.0" y="350.0" font-family="Arial, sans-serif" font-size="11">y</text>
<text x="234" y="336" font-family="Arial, sans-serif" font-size="16" font-weight="700">10.</text>
<line x1="258.0" y1="338" x2="258.0" y2="456" stroke="#cfd8dc" stroke-width="1"/>
<line x1="274.0" y1="338" x2="274.0" y2="456" stroke="#cfd8dc" stroke-width="1"/>
<line x1="290.0" y1="338" x2="290.0" y2="456" stroke="#cfd8dc" stroke-width="1"/>
<line x1="306.0" y1="338" x2="306.0" y2="456" stroke="#cfd8dc" stroke-width="1"/>
<line x1="322.0" y1="338" x2="322.0" y2="456" stroke="#cfd8dc" stroke-width="1"/>
<line x1="338.0" y1="338" x2="338.0" y2="456" stroke="#cfd8dc" stroke-width="1"/>
<line x1="354.0" y1="338" x2="354.0" y2="456" stroke="#cfd8dc" stroke-width="1"/>
<line x1="370.0" y1="338" x2="370.0" y2="456" stroke="#cfd8dc" stroke-width="1"/>
<line x1="386.0" y1="338" x2="386.0" y2="456" stroke="#cfd8dc" stroke-width="1"/>
<line x1="402.0" y1="338" x2="402.0" y2="456" stroke="#cfd8dc" stroke-width="1"/>
<line x1="418.0" y1="338" x2="418.0" y2="456" stroke="#cfd8dc" stroke-width="1"/>
<line x1="258" y1="338.0" x2="418" y2="338.0" stroke="#cfd8dc" stroke-width="1"/>
<line x1="258" y1="352.8" x2="418" y2="352.8" stroke="#cfd8dc" stroke-width="1"/>
<line x1="258" y1="367.5" x2="418" y2="367.5" stroke="#cfd8dc" stroke-width="1"/>
<line x1="258" y1="382.2" x2="418" y2="382.2" stroke="#cfd8dc" stroke-width="1"/>
<line x1="258" y1="397.0" x2="418" y2="397.0" stroke="#cfd8dc" stroke-width="1"/>
<line x1="258" y1="411.8" x2="418" y2="411.8" stroke="#cfd8dc" stroke-width="1"/>
<line x1="258" y1="426.5" x2="418" y2="426.5" stroke="#cfd8dc" stroke-width="1"/>
<line x1="258" y1="441.2" x2="418" y2="441.2" stroke="#cfd8dc" stroke-width="1"/>
<line x1="258" y1="456.0" x2="418" y2="456.0" stroke="#cfd8dc" stroke-width="1"/>
<line x1="338.0" y1="338" x2="338.0" y2="456" stroke="#263238" stroke-width="1.8"/>
<line x1="258" y1="397.0" x2="418" y2="397.0" stroke="#263238" stroke-width="1.8"/>
<text x="410.0" y="391.0" font-family="Arial, sans-serif" font-size="11">x</text>
<text x="344.0" y="350.0" font-family="Arial, sans-serif" font-size="11">y</text>
<text x="444" y="336" font-family="Arial, sans-serif" font-size="16" font-weight="700">11.</text>
<line x1="468.0" y1="338" x2="468.0" y2="456" stroke="#cfd8dc" stroke-width="1"/>
<line x1="484.0" y1="338" x2="484.0" y2="456" stroke="#cfd8dc" stroke-width="1"/>
<line x1="500.0" y1="338" x2="500.0" y2="456" stroke="#cfd8dc" stroke-width="1"/>
<line x1="516.0" y1="338" x2="516.0" y2="456" stroke="#cfd8dc" stroke-width="1"/>
<line x1="532.0" y1="338" x2="532.0" y2="456" stroke="#cfd8dc" stroke-width="1"/>
<line x1="548.0" y1="338" x2="548.0" y2="456" stroke="#cfd8dc" stroke-width="1"/>
<line x1="564.0" y1="338" x2="564.0" y2="456" stroke="#cfd8dc" stroke-width="1"/>
<line x1="580.0" y1="338" x2="580.0" y2="456" stroke="#cfd8dc" stroke-width="1"/>
<line x1="596.0" y1="338" x2="596.0" y2="456" stroke="#cfd8dc" stroke-width="1"/>
<line x1="612.0" y1="338" x2="612.0" y2="456" stroke="#cfd8dc" stroke-width="1"/>
<line x1="628.0" y1="338" x2="628.0" y2="456" stroke="#cfd8dc" stroke-width="1"/>
<line x1="468" y1="338.0" x2="628" y2="338.0" stroke="#cfd8dc" stroke-width="1"/>
<line x1="468" y1="352.8" x2="628" y2="352.8" stroke="#cfd8dc" stroke-width="1"/>
<line x1="468" y1="367.5" x2="628" y2="367.5" stroke="#cfd8dc" stroke-width="1"/>
<line x1="468" y1="382.2" x2="628" y2="382.2" stroke="#cfd8dc" stroke-width="1"/>
<line x1="468" y1="397.0" x2="628" y2="397.0" stroke="#cfd8dc" stroke-width="1"/>
<line x1="468" y1="411.8" x2="628" y2="411.8" stroke="#cfd8dc" stroke-width="1"/>
<line x1="468" y1="426.5" x2="628" y2="426.5" stroke="#cfd8dc" stroke-width="1"/>
<line x1="468" y1="441.2" x2="628" y2="441.2" stroke="#cfd8dc" stroke-width="1"/>
<line x1="468" y1="456.0" x2="628" y2="456.0" stroke="#cfd8dc" stroke-width="1"/>
<line x1="548.0" y1="338" x2="548.0" y2="456" stroke="#263238" stroke-width="1.8"/>
<line x1="468" y1="397.0" x2="628" y2="397.0" stroke="#263238" stroke-width="1.8"/>
<text x="620.0" y="391.0" font-family="Arial, sans-serif" font-size="11">x</text>
<text x="554.0" y="350.0" font-family="Arial, sans-serif" font-size="11">y</text>
<text x="654" y="336" font-family="Arial, sans-serif" font-size="16" font-weight="700">12.</text>
<line x1="678.0" y1="338" x2="678.0" y2="456" stroke="#cfd8dc" stroke-width="1"/>
<line x1="694.0" y1="338" x2="694.0" y2="456" stroke="#cfd8dc" stroke-width="1"/>
<line x1="710.0" y1="338" x2="710.0" y2="456" stroke="#cfd8dc" stroke-width="1"/>
<line x1="726.0" y1="338" x2="726.0" y2="456" stroke="#cfd8dc" stroke-width="1"/>
<line x1="742.0" y1="338" x2="742.0" y2="456" stroke="#cfd8dc" stroke-width="1"/>
<line x1="758.0" y1="338" x2="758.0" y2="456" stroke="#cfd8dc" stroke-width="1"/>
<line x1="774.0" y1="338" x2="774.0" y2="456" stroke="#cfd8dc" stroke-width="1"/>
<line x1="790.0" y1="338" x2="790.0" y2="456" stroke="#cfd8dc" stroke-width="1"/>
<line x1="806.0" y1="338" x2="806.0" y2="456" stroke="#cfd8dc" stroke-width="1"/>
<line x1="822.0" y1="338" x2="822.0" y2="456" stroke="#cfd8dc" stroke-width="1"/>
<line x1="838.0" y1="338" x2="838.0" y2="456" stroke="#cfd8dc" stroke-width="1"/>
<line x1="678" y1="338.0" x2="838" y2="338.0" stroke="#cfd8dc" stroke-width="1"/>
<line x1="678" y1="352.8" x2="838" y2="352.8" stroke="#cfd8dc" stroke-width="1"/>
<line x1="678" y1="367.5" x2="838" y2="367.5" stroke="#cfd8dc" stroke-width="1"/>
<line x1="678" y1="382.2" x2="838" y2="382.2" stroke="#cfd8dc" stroke-width="1"/>
<line x1="678" y1="397.0" x2="838" y2="397.0" stroke="#cfd8dc" stroke-width="1"/>
<line x1="678" y1="411.8" x2="838" y2="411.8" stroke="#cfd8dc" stroke-width="1"/>
<line x1="678" y1="426.5" x2="838" y2="426.5" stroke="#cfd8dc" stroke-width="1"/>
<line x1="678" y1="441.2" x2="838" y2="441.2" stroke="#cfd8dc" stroke-width="1"/>
<line x1="678" y1="456.0" x2="838" y2="456.0" stroke="#cfd8dc" stroke-width="1"/>
<line x1="758.0" y1="338" x2="758.0" y2="456" stroke="#263238" stroke-width="1.8"/>
<line x1="678" y1="397.0" x2="838" y2="397.0" stroke="#263238" stroke-width="1.8"/>
<text x="830.0" y="391.0" font-family="Arial, sans-serif" font-size="11">x</text>
<text x="764.0" y="350.0" font-family="Arial, sans-serif" font-size="11">y</text>
<text x="24" y="486" font-family="Arial, sans-serif" font-size="16" font-weight="700">13.</text>
<line x1="48.0" y1="488" x2="48.0" y2="606" stroke="#cfd8dc" stroke-width="1"/>
<line x1="64.0" y1="488" x2="64.0" y2="606" stroke="#cfd8dc" stroke-width="1"/>
<line x1="80.0" y1="488" x2="80.0" y2="606" stroke="#cfd8dc" stroke-width="1"/>
<line x1="96.0" y1="488" x2="96.0" y2="606" stroke="#cfd8dc" stroke-width="1"/>
<line x1="112.0" y1="488" x2="112.0" y2="606" stroke="#cfd8dc" stroke-width="1"/>
<line x1="128.0" y1="488" x2="128.0" y2="606" stroke="#cfd8dc" stroke-width="1"/>
<line x1="144.0" y1="488" x2="144.0" y2="606" stroke="#cfd8dc" stroke-width="1"/>
<line x1="160.0" y1="488" x2="160.0" y2="606" stroke="#cfd8dc" stroke-width="1"/>
<line x1="176.0" y1="488" x2="176.0" y2="606" stroke="#cfd8dc" stroke-width="1"/>
<line x1="192.0" y1="488" x2="192.0" y2="606" stroke="#cfd8dc" stroke-width="1"/>
<line x1="208.0" y1="488" x2="208.0" y2="606" stroke="#cfd8dc" stroke-width="1"/>
<line x1="48" y1="488.0" x2="208" y2="488.0" stroke="#cfd8dc" stroke-width="1"/>
<line x1="48" y1="502.8" x2="208" y2="502.8" stroke="#cfd8dc" stroke-width="1"/>
<line x1="48" y1="517.5" x2="208" y2="517.5" stroke="#cfd8dc" stroke-width="1"/>
<line x1="48" y1="532.2" x2="208" y2="532.2" stroke="#cfd8dc" stroke-width="1"/>
<line x1="48" y1="547.0" x2="208" y2="547.0" stroke="#cfd8dc" stroke-width="1"/>
<line x1="48" y1="561.8" x2="208" y2="561.8" stroke="#cfd8dc" stroke-width="1"/>
<line x1="48" y1="576.5" x2="208" y2="576.5" stroke="#cfd8dc" stroke-width="1"/>
<line x1="48" y1="591.2" x2="208" y2="591.2" stroke="#cfd8dc" stroke-width="1"/>
<line x1="48" y1="606.0" x2="208" y2="606.0" stroke="#cfd8dc" stroke-width="1"/>
<line x1="128.0" y1="488" x2="128.0" y2="606" stroke="#263238" stroke-width="1.8"/>
<line x1="48" y1="547.0" x2="208" y2="547.0" stroke="#263238" stroke-width="1.8"/>
<text x="200.0" y="541.0" font-family="Arial, sans-serif" font-size="11">x</text>
<text x="134.0" y="500.0" font-family="Arial, sans-serif" font-size="11">y</text>
<text x="234" y="486" font-family="Arial, sans-serif" font-size="16" font-weight="700">14.</text>
<line x1="258.0" y1="488" x2="258.0" y2="606" stroke="#cfd8dc" stroke-width="1"/>
<line x1="274.0" y1="488" x2="274.0" y2="606" stroke="#cfd8dc" stroke-width="1"/>
<line x1="290.0" y1="488" x2="290.0" y2="606" stroke="#cfd8dc" stroke-width="1"/>
<line x1="306.0" y1="488" x2="306.0" y2="606" stroke="#cfd8dc" stroke-width="1"/>
<line x1="322.0" y1="488" x2="322.0" y2="606" stroke="#cfd8dc" stroke-width="1"/>
<line x1="338.0" y1="488" x2="338.0" y2="606" stroke="#cfd8dc" stroke-width="1"/>
<line x1="354.0" y1="488" x2="354.0" y2="606" stroke="#cfd8dc" stroke-width="1"/>
<line x1="370.0" y1="488" x2="370.0" y2="606" stroke="#cfd8dc" stroke-width="1"/>
<line x1="386.0" y1="488" x2="386.0" y2="606" stroke="#cfd8dc" stroke-width="1"/>
<line x1="402.0" y1="488" x2="402.0" y2="606" stroke="#cfd8dc" stroke-width="1"/>
<line x1="418.0" y1="488" x2="418.0" y2="606" stroke="#cfd8dc" stroke-width="1"/>
<line x1="258" y1="488.0" x2="418" y2="488.0" stroke="#cfd8dc" stroke-width="1"/>
<line x1="258" y1="502.8" x2="418" y2="502.8" stroke="#cfd8dc" stroke-width="1"/>
<line x1="258" y1="517.5" x2="418" y2="517.5" stroke="#cfd8dc" stroke-width="1"/>
<line x1="258" y1="532.2" x2="418" y2="532.2" stroke="#cfd8dc" stroke-width="1"/>
<line x1="258" y1="547.0" x2="418" y2="547.0" stroke="#cfd8dc" stroke-width="1"/>
<line x1="258" y1="561.8" x2="418" y2="561.8" stroke="#cfd8dc" stroke-width="1"/>
<line x1="258" y1="576.5" x2="418" y2="576.5" stroke="#cfd8dc" stroke-width="1"/>
<line x1="258" y1="591.2" x2="418" y2="591.2" stroke="#cfd8dc" stroke-width="1"/>
<line x1="258" y1="606.0" x2="418" y2="606.0" stroke="#cfd8dc" stroke-width="1"/>
<line x1="338.0" y1="488" x2="338.0" y2="606" stroke="#263238" stroke-width="1.8"/>
<line x1="258" y1="547.0" x2="418" y2="547.0" stroke="#263238" stroke-width="1.8"/>
<text x="410.0" y="541.0" font-family="Arial, sans-serif" font-size="11">x</text>
<text x="344.0" y="500.0" font-family="Arial, sans-serif" font-size="11">y</text>
<text x="444" y="486" font-family="Arial, sans-serif" font-size="16" font-weight="700">15.</text>
<line x1="468.0" y1="488" x2="468.0" y2="606" stroke="#cfd8dc" stroke-width="1"/>
<line x1="484.0" y1="488" x2="484.0" y2="606" stroke="#cfd8dc" stroke-width="1"/>
<line x1="500.0" y1="488" x2="500.0" y2="606" stroke="#cfd8dc" stroke-width="1"/>
<line x1="516.0" y1="488" x2="516.0" y2="606" stroke="#cfd8dc" stroke-width="1"/>
<line x1="532.0" y1="488" x2="532.0" y2="606" stroke="#cfd8dc" stroke-width="1"/>
<line x1="548.0" y1="488" x2="548.0" y2="606" stroke="#cfd8dc" stroke-width="1"/>
<line x1="564.0" y1="488" x2="564.0" y2="606" stroke="#cfd8dc" stroke-width="1"/>
<line x1="580.0" y1="488" x2="580.0" y2="606" stroke="#cfd8dc" stroke-width="1"/>
<line x1="596.0" y1="488" x2="596.0" y2="606" stroke="#cfd8dc" stroke-width="1"/>
<line x1="612.0" y1="488" x2="612.0" y2="606" stroke="#cfd8dc" stroke-width="1"/>
<line x1="628.0" y1="488" x2="628.0" y2="606" stroke="#cfd8dc" stroke-width="1"/>
<line x1="468" y1="488.0" x2="628" y2="488.0" stroke="#cfd8dc" stroke-width="1"/>
<line x1="468" y1="502.8" x2="628" y2="502.8" stroke="#cfd8dc" stroke-width="1"/>
<line x1="468" y1="517.5" x2="628" y2="517.5" stroke="#cfd8dc" stroke-width="1"/>
<line x1="468" y1="532.2" x2="628" y2="532.2" stroke="#cfd8dc" stroke-width="1"/>
<line x1="468" y1="547.0" x2="628" y2="547.0" stroke="#cfd8dc" stroke-width="1"/>
<line x1="468" y1="561.8" x2="628" y2="561.8" stroke="#cfd8dc" stroke-width="1"/>
<line x1="468" y1="576.5" x2="628" y2="576.5" stroke="#cfd8dc" stroke-width="1"/>
<line x1="468" y1="591.2" x2="628" y2="591.2" stroke="#cfd8dc" stroke-width="1"/>
<line x1="468" y1="606.0" x2="628" y2="606.0" stroke="#cfd8dc" stroke-width="1"/>
<line x1="548.0" y1="488" x2="548.0" y2="606" stroke="#263238" stroke-width="1.8"/>
<line x1="468" y1="547.0" x2="628" y2="547.0" stroke="#263238" stroke-width="1.8"/>
<text x="620.0" y="541.0" font-family="Arial, sans-serif" font-size="11">x</text>
<text x="554.0" y="500.0" font-family="Arial, sans-serif" font-size="11">y</text>
<text x="654" y="486" font-family="Arial, sans-serif" font-size="16" font-weight="700">16.</text>
<line x1="678.0" y1="488" x2="678.0" y2="606" stroke="#cfd8dc" stroke-width="1"/>
<line x1="694.0" y1="488" x2="694.0" y2="606" stroke="#cfd8dc" stroke-width="1"/>
<line x1="710.0" y1="488" x2="710.0" y2="606" stroke="#cfd8dc" stroke-width="1"/>
<line x1="726.0" y1="488" x2="726.0" y2="606" stroke="#cfd8dc" stroke-width="1"/>
<line x1="742.0" y1="488" x2="742.0" y2="606" stroke="#cfd8dc" stroke-width="1"/>
<line x1="758.0" y1="488" x2="758.0" y2="606" stroke="#cfd8dc" stroke-width="1"/>
<line x1="774.0" y1="488" x2="774.0" y2="606" stroke="#cfd8dc" stroke-width="1"/>
<line x1="790.0" y1="488" x2="790.0" y2="606" stroke="#cfd8dc" stroke-width="1"/>
<line x1="806.0" y1="488" x2="806.0" y2="606" stroke="#cfd8dc" stroke-width="1"/>
<line x1="822.0" y1="488" x2="822.0" y2="606" stroke="#cfd8dc" stroke-width="1"/>
<line x1="838.0" y1="488" x2="838.0" y2="606" stroke="#cfd8dc" stroke-width="1"/>
<line x1="678" y1="488.0" x2="838" y2="488.0" stroke="#cfd8dc" stroke-width="1"/>
<line x1="678" y1="502.8" x2="838" y2="502.8" stroke="#cfd8dc" stroke-width="1"/>
<line x1="678" y1="517.5" x2="838" y2="517.5" stroke="#cfd8dc" stroke-width="1"/>
<line x1="678" y1="532.2" x2="838" y2="532.2" stroke="#cfd8dc" stroke-width="1"/>
<line x1="678" y1="547.0" x2="838" y2="547.0" stroke="#cfd8dc" stroke-width="1"/>
<line x1="678" y1="561.8" x2="838" y2="561.8" stroke="#cfd8dc" stroke-width="1"/>
<line x1="678" y1="576.5" x2="838" y2="576.5" stroke="#cfd8dc" stroke-width="1"/>
<line x1="678" y1="591.2" x2="838" y2="591.2" stroke="#cfd8dc" stroke-width="1"/>
<line x1="678" y1="606.0" x2="838" y2="606.0" stroke="#cfd8dc" stroke-width="1"/>
<line x1="758.0" y1="488" x2="758.0" y2="606" stroke="#263238" stroke-width="1.8"/>
<line x1="678" y1="547.0" x2="838" y2="547.0" stroke="#263238" stroke-width="1.8"/>
<text x="830.0" y="541.0" font-family="Arial, sans-serif" font-size="11">x</text>
<text x="764.0" y="500.0" font-family="Arial, sans-serif" font-size="11">y</text>
</svg>