<svg xmlns="http://www.w3.org/2000/svg" width="1026" height="596" viewBox="0 0 18.67 10.85">
<rect width="100%" height="100%" fill="white"/>
<text x="0.10" y="0.14" font-size="0.22" font-family="Arial, sans-serif" font-weight="700">1.</text>
<line x1="0.200" y1="0.200" x2="0.200" y2="3.280" stroke="#d7d7d7" stroke-width="0.02"/>
<line x1="0.540" y1="0.200" x2="0.540" y2="3.280" stroke="#d7d7d7" stroke-width="0.02"/>
<line x1="0.880" y1="0.200" x2="0.880" y2="3.280" stroke="#d7d7d7" stroke-width="0.02"/>
<line x1="1.220" y1="0.200" x2="1.220" y2="3.280" stroke="#d7d7d7" stroke-width="0.02"/>
<line x1="1.560" y1="0.200" x2="1.560" y2="3.280" stroke="#d7d7d7" stroke-width="0.02"/>
<line x1="1.900" y1="0.200" x2="1.900" y2="3.280" stroke="#d7d7d7" stroke-width="0.02"/>
<line x1="2.240" y1="0.200" x2="2.240" y2="3.280" stroke="#d7d7d7" stroke-width="0.02"/>
<line x1="2.580" y1="0.200" x2="2.580" y2="3.280" stroke="#d7d7d7" stroke-width="0.02"/>
<line x1="2.920" y1="0.200" x2="2.920" y2="3.280" stroke="#d7d7d7" stroke-width="0.02"/>
<line x1="3.260" y1="0.200" x2="3.260" y2="3.280" stroke="#d7d7d7" stroke-width="0.02"/>
<line x1="3.600" y1="0.200" x2="3.600" y2="3.280" stroke="#d7d7d7" stroke-width="0.02"/>
<line x1="3.940" y1="0.200" x2="3.940" y2="3.280" stroke="#d7d7d7" stroke-width="0.02"/>
<line x1="4.280" y1="0.200" x2="4.280" y2="3.280" stroke="#d7d7d7" stroke-width="0.02"/>
<line x1="0.200" y1="0.200" x2="4.280" y2="0.200" stroke="#d7d7d7" stroke-width="0.02"/>
<line x1="0.200" y1="0.420" x2="4.280" y2="0.420" stroke="#d7d7d7" stroke-width="0.02"/>
<line x1="0.200" y1="0.640" x2="4.280" y2="0.640" stroke="#d7d7d7" stroke-width="0.02"/>
<line x1="0.200" y1="0.860" x2="4.280" y2="0.860" stroke="#d7d7d7" stroke-width="0.02"/>
<line x1="0.200" y1="1.080" x2="4.280" y2="1.080" stroke="#d7d7d7" stroke-width="0.02"/>
<line x1="0.200" y1="1.300" x2="4.280" y2="1.300" stroke="#d7d7d7" stroke-width="0.02"/>
<line x1="0.200" y1="1.520" x2="4.280" y2="1.520" stroke="#d7d7d7" stroke-width="0.02"/>
<line x1="0.200" y1="1.740" x2="4.280" y2="1.740" stroke="#d7d7d7" stroke-width="0.02"/>
<line x1="0.200" y1="1.960" x2="4.280" y2="1.960" stroke="#d7d7d7" stroke-width="0.02"/>
<line x1="0.200" y1="2.180" x2="4.280" y2="2.180" stroke="#d7d7d7" stroke-width="0.02"/>
<line x1="0.200" y1="2.400" x2="4.280" y2="2.400" stroke="#d7d7d7" stroke-width="0.02"/>
<line x1="0.200" y1="2.620" x2="4.280" y2="2.620" stroke="#d7d7d7" stroke-width="0.02"/>
<line x1="0.200" y1="2.840" x2="4.280" y2="2.840" stroke="#d7d7d7" stroke-width="0.02"/>
<line x1="0.200" y1="3.060" x2="4.280" y2="3.060" stroke="#d7d7d7" stroke-width="0.02"/>
<line x1="0.200" y1="3.280" x2="4.280" y2="3.280" stroke="#d7d7d7" stroke-width="0.02"/>
<line x1="0.200" y1="1.520" x2="4.280" y2="1.520" stroke="black" stroke-width="0.04"/>
<line x1="2.240" y1="0.200" x2="2.240" y2="3.280" stroke="black" stroke-width="0.04"/>
<path d="M1.261,0.135 L1.302,0.284 L1.342,0.427 L1.383,0.563 L1.424,0.693 L1.465,0.816 L1.506,0.934 L1.546,1.044 L1.587,1.149 L1.628,1.247 L1.669,1.339 L1.710,1.425 L1.750,1.504 L1.791,1.577 L1.832,1.643 L1.873,1.703 L1.914,1.757 L1.954,1.805 L1.995,1.846 L2.036,1.881 L2.077,1.909 L2.118,1.931 L2.158,1.947 L2.199,1.957 L2.240,1.960 L2.281,1.957 L2.322,1.947 L2.362,1.931 L2.403,1.909 L2.444,1.881 L2.485,1.846 L2.526,1.805 L2.566,1.757 L2.607,1.703 L2.648,1.643 L2.689,1.577 L2.730,1.504 L2.770,1.425 L2.811,1.339 L2.852,1.247 L2.893,1.149 L2.934,1.044 L2.974,0.934 L3.015,0.816 L3.056,0.693 L3.097,0.563 L3.138,0.427 L3.178,0.284 L3.219,0.135" fill="none" stroke="#007c91" stroke-width="0.06" stroke-linejoin="round" stroke-linecap="round"/>
<circle cx="2.240" cy="1.960" r="0.07" fill="#b22222"/>
<circle cx="1.900" cy="1.740" r="0.06" fill="#444"/>
<circle cx="2.580" cy="1.740" r="0.06" fill="#444"/>
<text x="4.83" y="0.14" font-size="0.22" font-family="Arial, sans-serif" font-weight="700">2.</text>
<line x1="4.930" y1="0.200" x2="4.930" y2="3.280" stroke="#d7d7d7" stroke-width="0.02"/>
<line x1="5.270" y1="0.200" x2="5.270" y2="3.280" stroke="#d7d7d7" stroke-width="0.02"/>
<line x1="5.610" y1="0.200" x2="5.610" y2="3.280" stroke="#d7d7d7" stroke-width="0.02"/>
<line x1="5.950" y1="0.200" x2="5.950" y2="3.280" stroke="#d7d7d7" stroke-width="0.02"/>
<line x1="6.290" y1="0.200" x2="6.290" y2="3.280" stroke="#d7d7d7" stroke-width="0.02"/>
<line x1="6.630" y1="0.200" x2="6.630" y2="3.280" stroke="#d7d7d7" stroke-width="0.02"/>
<line x1="6.970" y1="0.200" x2="6.970" y2="3.280" stroke="#d7d7d7" stroke-width="0.02"/>
<line x1="7.310" y1="0.200" x2="7.310" y2="3.280" stroke="#d7d7d7" stroke-width="0.02"/>
<line x1="7.650" y1="0.200" x2="7.650" y2="3.280" stroke="#d7d7d7" stroke-width="0.02"/>
<line x1="7.990" y1="0.200" x2="7.990" y2="3.280" stroke="#d7d7d7" stroke-width="0.02"/>
<line x1="8.330" y1="0.200" x2="8.330" y2="3.280" stroke="#d7d7d7" stroke-width="0.02"/>
<line x1="8.670" y1="0.200" x2="8.670" y2="3.280" stroke="#d7d7d7" stroke-width="0.02"/>
<line x1="9.010" y1="0.200" x2="9.010" y2="3.280" stroke="#d7d7d7" stroke-width="0.02"/>
<line x1="4.930" y1="0.200" x2="9.010" y2="0.200" stroke="#d7d7d7" stroke-width="0.02"/>
<line x1="4.930" y1="0.420" x2="9.010" y2="0.420" stroke="#d7d7d7" stroke-width="0.02"/>
<line x1="4.930" y1="0.640" x2="9.010" y2="0.640" stroke="#d7d7d7" stroke-width="0.02"/>
<line x1="4.930" y1="0.860" x2="9.010" y2="0.860" stroke="#d7d7d7" stroke-width="0.02"/>
<line x1="4.930" y1="1.080" x2="9.010" y2="1.080" stroke="#d7d7d7" stroke-width="0.02"/>
<line x1="4.930" y1="1.300" x2="9.010" y2="1.300" stroke="#d7d7d7" stroke-width="0.02"/>
<line x1="4.930" y1="1.520" x2="9.010" y2="1.520" stroke="#d7d7d7" stroke-width="0.02"/>
<line x1="4.930" y1="1.740" x2="9.010" y2="1.740" stroke="#d7d7d7" stroke-width="0.02"/>
<line x1="4.930" y1="1.960" x2="9.010" y2="1.960" stroke="#d7d7d7" stroke-width="0.02"/>
<line x1="4.930" y1="2.180" x2="9.010" y2="2.180" stroke="#d7d7d7" stroke-width="0.02"/>
<line x1="4.930" y1="2.400" x2="9.010" y2="2.400" stroke="#d7d7d7" stroke-width="0.02"/>
<line x1="4.930" y1="2.620" x2="9.010" y2="2.620" stroke="#d7d7d7" stroke-width="0.02"/>
<line x1="4.930" y1="2.840" x2="9.010" y2="2.840" stroke="#d7d7d7" stroke-width="0.02"/>
<line x1="4.930" y1="3.060" x2="9.010" y2="3.060" stroke="#d7d7d7" stroke-width="0.02"/>
<line x1="4.930" y1="3.280" x2="9.010" y2="3.280" stroke="#d7d7d7" stroke-width="0.02"/>
<line x1="4.930" y1="1.520" x2="9.010" y2="1.520" stroke="black" stroke-width="0.04"/>
<line x1="6.970" y1="0.200" x2="6.970" y2="3.280" stroke="black" stroke-width="0.04"/>
<path d="M6.725,0.112 L6.766,0.253 L6.807,0.387 L6.848,0.515 L6.888,0.636 L6.929,0.751 L6.970,0.860 L7.011,0.962 L7.052,1.059 L7.092,1.148 L7.133,1.232 L7.174,1.309 L7.215,1.380 L7.256,1.444 L7.296,1.502 L7.337,1.554 L7.378,1.599 L7.419,1.638 L7.460,1.671 L7.500,1.697 L7.541,1.717 L7.582,1.731 L7.623,1.739 L7.664,1.740 L7.704,1.734 L7.745,1.723 L7.786,1.705 L7.827,1.681 L7.868,1.650 L7.908,1.613 L7.949,1.570 L7.990,1.520 L8.031,1.464 L8.072,1.402 L8.112,1.333 L8.153,1.258 L8.194,1.177 L8.235,1.089 L8.276,0.995 L8.316,0.895 L8.357,0.788 L8.398,0.675 L8.439,0.556 L8.480,0.430 L8.520,0.298 L8.561,0.160" fill="none" stroke="#007c91" stroke-width="0.06" stroke-linejoin="round" stroke-linecap="round"/>
<circle cx="7.650" cy="1.740" r="0.07" fill="#b22222"/>
<circle cx="7.310" cy="1.520" r="0.06" fill="#444"/>
<circle cx="7.990" cy="1.520" r="0.06" fill="#444"/>
<text x="9.56" y="0.14" font-size="0.22" font-family="Arial, sans-serif" font-weight="700">3.</text>
<line x1="9.660" y1="0.200" x2="9.660" y2="3.280" stroke="#d7d7d7" stroke-width="0.02"/>
<line x1="10.000" y1="0.200" x2="10.000" y2="3.280" stroke="#d7d7d7" stroke-width="0.02"/>
<line x1="10.340" y1="0.200" x2="10.340" y2="3.280" stroke="#d7d7d7" stroke-width="0.02"/>
<line x1="10.680" y1="0.200" x2="10.680" y2="3.280" stroke="#d7d7d7" stroke-width="0.02"/>
<line x1="11.020" y1="0.200" x2="11.020" y2="3.280" stroke="#d7d7d7" stroke-width="0.02"/>
<line x1="11.360" y1="0.200" x2="11.360" y2="3.280" stroke="#d7d7d7" stroke-width="0.02"/>
<line x1="11.700" y1="0.200" x2="11.700" y2="3.280" stroke="#d7d7d7" stroke-width="0.02"/>
<line x1="12.040" y1="0.200" x2="12.040" y2="3.280" stroke="#d7d7d7" stroke-width="0.02"/>
<line x1="12.380" y1="0.200" x2="12.380" y2="3.280" stroke="#d7d7d7" stroke-width="0.02"/>
<line x1="12.720" y1="0.200" x2="12.720" y2="3.280" stroke="#d7d7d7" stroke-width="0.02"/>
<line x1="13.060" y1="0.200" x2="13.060" y2="3.280" stroke="#d7d7d7" stroke-width="0.02"/>
<line x1="13.400" y1="0.200" x2="13.400" y2="3.280" stroke="#d7d7d7" stroke-width="0.02"/>
<line x1="13.740" y1="0.200" x2="13.740" y2="3.280" stroke="#d7d7d7" stroke-width="0.02"/>
<line x1="9.660" y1="0.200" x2="13.740" y2="0.200" stroke="#d7d7d7" stroke-width="0.02"/>
<line x1="9.660" y1="0.420" x2="13.740" y2="0.420" stroke="#d7d7d7" stroke-width="0.02"/>
<line x1="9.660" y1="0.640" x2="13.740" y2="0.640" stroke="#d7d7d7" stroke-width="0.02"/>
<line x1="9.660" y1="0.860" x2="13.740" y2="0.860" stroke="#d7d7d7" stroke-width="0.02"/>
<line x1="9.660" y1="1.080" x2="13.740" y2="1.080" stroke="#d7d7d7" stroke-width="0.02"/>
<line x1="9.660" y1="1.300" x2="13.740" y2="1.300" stroke="#d7d7d7" stroke-width="0.02"/>
<line x1="9.660" y1="1.520" x2="13.740" y2="1.520" stroke="#d7d7d7" stroke-width="0.02"/>
<line x1="9.660" y1="1.740" x2="13.740" y2="1.740" stroke="#d7d7d7" stroke-width="0.02"/>
<line x1="9.660" y1="1.960" x2="13.740" y2="1.960" stroke="#d7d7d7" stroke-width="0.02"/>
<line x1="9.660" y1="2.180" x2="13.740" y2="2.180" stroke="#d7d7d7" stroke-width="0.02"/>
<line x1="9.660" y1="2.400" x2="13.740" y2="2.400" stroke="#d7d7d7" stroke-width="0.02"/>
<line x1="9.660" y1="2.620" x2="13.740" y2="2.620" stroke="#d7d7d7" stroke-width="0.02"/>
<line x1="9.660" y1="2.840" x2="13.740" y2="2.840" stroke="#d7d7d7" stroke-width="0.02"/>
<line x1="9.660" y1="3.060" x2="13.740" y2="3.060" stroke="#d7d7d7" stroke-width="0.02"/>
<line x1="9.660" y1="3.280" x2="13.740" y2="3.280" stroke="#d7d7d7" stroke-width="0.02"/>
<line x1="9.660" y1="1.520" x2="13.740" y2="1.520" stroke="black" stroke-width="0.04"/>
<line x1="11.700" y1="0.200" x2="11.700" y2="3.280" stroke="black" stroke-width="0.04"/>
<path d="M9.986,0.147 L10.027,0.304 L10.068,0.455 L10.109,0.600 L10.150,0.738 L10.190,0.870 L10.231,0.996 L10.272,1.115 L10.313,1.228 L10.354,1.335 L10.394,1.435 L10.435,1.529 L10.476,1.617 L10.517,1.698 L10.558,1.773 L10.598,1.842 L10.639,1.904 L10.680,1.960 L10.721,2.010 L10.762,2.053 L10.802,2.090 L10.843,2.121 L10.884,2.145 L10.925,2.163 L10.966,2.174 L11.006,2.180 L11.047,2.179 L11.088,2.171 L11.129,2.157 L11.170,2.137 L11.210,2.111 L11.251,2.078 L11.292,2.039 L11.333,1.994 L11.374,1.942 L11.414,1.884 L11.455,1.820 L11.496,1.749 L11.537,1.672 L11.578,1.588 L11.618,1.499 L11.659,1.402 L11.700,1.300 L11.741,1.191 L11.782,1.076 L11.822,0.955 L11.863,0.827 L11.904,0.693 L11.945,0.552 L11.986,0.406 L12.026,0.252 L12.067,0.093" fill="none" stroke="#007c91" stroke-width="0.06" stroke-linejoin="round" stroke-linecap="round"/>
<circle cx="11.020" cy="2.180" r="0.07" fill="#b22222"/>
<circle cx="10.680" cy="1.960" r="0.06" fill="#444"/>
<circle cx="11.360" cy="1.960" r="0.06" fill="#444"/>
<text x="14.29" y="0.14" font-size="0.22" font-family="Arial, sans-serif" font-weight="700">4.</text>
<line x1="14.390" y1="0.200" x2="14.390" y2="3.280" stroke="#d7d7d7" stroke-width="0.02"/>
<line x1="14.730" y1="0.200" x2="14.730" y2="3.280" stroke="#d7d7d7" stroke-width="0.02"/>
<line x1="15.070" y1="0.200" x2="15.070" y2="3.280" stroke="#d7d7d7" stroke-width="0.02"/>
<line x1="15.410" y1="0.200" x2="15.410" y2="3.280" stroke="#d7d7d7" stroke-width="0.02"/>
<line x1="15.750" y1="0.200" x2="15.750" y2="3.280" stroke="#d7d7d7" stroke-width="0.02"/>
<line x1="16.090" y1="0.200" x2="16.090" y2="3.280" stroke="#d7d7d7" stroke-width="0.02"/>
<line x1="16.430" y1="0.200" x2="16.430" y2="3.280" stroke="#d7d7d7" stroke-width="0.02"/>
<line x1="16.770" y1="0.200" x2="16.770" y2="3.280" stroke="#d7d7d7" stroke-width="0.02"/>
<line x1="17.110" y1="0.200" x2="17.110" y2="3.280" stroke="#d7d7d7" stroke-width="0.02"/>
<line x1="17.450" y1="0.200" x2="17.450" y2="3.280" stroke="#d7d7d7" stroke-width="0.02"/>
<line x1="17.790" y1="0.200" x2="17.790" y2="3.280" stroke="#d7d7d7" stroke-width="0.02"/>
<line x1="18.130" y1="0.200" x2="18.130" y2="3.280" stroke="#d7d7d7" stroke-width="0.02"/>
<line x1="18.470" y1="0.200" x2="18.470" y2="3.280" stroke="#d7d7d7" stroke-width="0.02"/>
<line x1="14.390" y1="0.200" x2="18.470" y2="0.200" stroke="#d7d7d7" stroke-width="0.02"/>
<line x1="14.390" y1="0.420" x2="18.470" y2="0.420" stroke="#d7d7d7" stroke-width="0.02"/>
<line x1="14.390" y1="0.640" x2="18.470" y2="0.640" stroke="#d7d7d7" stroke-width="0.02"/>
<line x1="14.390" y1="0.860" x2="18.470" y2="0.860" stroke="#d7d7d7" stroke-width="0.02"/>
<line x1="14.390" y1="1.080" x2="18.470" y2="1.080" stroke="#d7d7d7" stroke-width="0.02"/>
<line x1="14.390" y1="1.300" x2="18.470" y2="1.300" stroke="#d7d7d7" stroke-width="0.02"/>
<line x1="14.390" y1="1.520" x2="18.470" y2="1.520" stroke="#d7d7d7" stroke-width="0.02"/>
<line x1="14.390" y1="1.740" x2="18.470" y2="1.740" stroke="#d7d7d7" stroke-width="0.02"/>
<line x1="14.390" y1="1.960" x2="18.470" y2="1.960" stroke="#d7d7d7" stroke-width="0.02"/>
<line x1="14.390" y1="2.180" x2="18.470" y2="2.180" stroke="#d7d7d7" stroke-width="0.02"/>
<line x1="14.390" y1="2.400" x2="18.470" y2="2.400" stroke="#d7d7d7" stroke-width="0.02"/>
<line x1="14.390" y1="2.620" x2="18.470" y2="2.620" stroke="#d7d7d7" stroke-width="0.02"/>
<line x1="14.390" y1="2.840" x2="18.470" y2="2.840" stroke="#d7d7d7" stroke-width="0.02"/>
<line x1="14.390" y1="3.060" x2="18.470" y2="3.060" stroke="#d7d7d7" stroke-width="0.02"/>
<line x1="14.390" y1="3.280" x2="18.470" y2="3.280" stroke="#d7d7d7" stroke-width="0.02"/>
<line x1="14.390" y1="1.520" x2="18.470" y2="1.520" stroke="black" stroke-width="0.04"/>
<line x1="16.430" y1="0.200" x2="16.430" y2="3.280" stroke="black" stroke-width="0.04"/>
<path d="M15.736,3.333 L15.777,3.176 L15.818,3.025 L15.859,2.880 L15.900,2.742 L15.940,2.610 L15.981,2.484 L16.022,2.365 L16.063,2.252 L16.104,2.145 L16.144,2.045 L16.185,1.951 L16.226,1.863 L16.267,1.782 L16.308,1.707 L16.348,1.638 L16.389,1.576 L16.430,1.520 L16.471,1.470 L16.512,1.427 L16.552,1.390 L16.593,1.359 L16.634,1.335 L16.675,1.317 L16.716,1.306 L16.756,1.300 L16.797,1.301 L16.838,1.309 L16.879,1.323 L16.920,1.343 L16.960,1.369 L17.001,1.402 L17.042,1.441 L17.083,1.486 L17.124,1.538 L17.164,1.596 L17.205,1.660 L17.246,1.731 L17.287,1.808 L17.328,1.892 L17.368,1.981 L17.409,2.078 L17.450,2.180 L17.491,2.289 L17.532,2.404 L17.572,2.525 L17.613,2.653 L17.654,2.787 L17.695,2.928 L17.736,3.074 L17.776,3.228 L17.817,3.387" fill="none" stroke="#007c91" stroke-width="0.06" stroke-linejoin="round" stroke-linecap="round"/>
<circle cx="16.770" cy="1.300" r="0.07" fill="#b22222"/>
<circle cx="16.430" cy="1.520" r="0.06" fill="#444"/>
<circle cx="17.110" cy="1.520" r="0.06" fill="#444"/>
<text x="0.10" y="3.80" font-size="0.22" font-family="Arial, sans-serif" font-weight="700">5.</text>
<line x1="0.200" y1="3.860" x2="0.200" y2="6.940" stroke="#d7d7d7" stroke-width="0.02"/>
<line x1="0.540" y1="3.860" x2="0.540" y2="6.940" stroke="#d7d7d7" stroke-width="0.02"/>
<line x1="0.880" y1="3.860" x2="0.880" y2="6.940" stroke="#d7d7d7" stroke-width="0.02"/>
<line x1="1.220" y1="3.860" x2="1.220" y2="6.940" stroke="#d7d7d7" stroke-width="0.02"/>
<line x1="1.560" y1="3.860" x2="1.560" y2="6.940" stroke="#d7d7d7" stroke-width="0.02"/>
<line x1="1.900" y1="3.860" x2="1.900" y2="6.940" stroke="#d7d7d7" stroke-width="0.02"/>
<line x1="2.240" y1="3.860" x2="2.240" y2="6.940" stroke="#d7d7d7" stroke-width="0.02"/>
<line x1="2.580" y1="3.860" x2="2.580" y2="6.940" stroke="#d7d7d7" stroke-width="0.02"/>
<line x1="2.920" y1="3.860" x2="2.920" y2="6.940" stroke="#d7d7d7" stroke-width="0.02"/>
<line x1="3.260" y1="3.860" x2="3.260" y2="6.940" stroke="#d7d7d7" stroke-width="0.02"/>
<line x1="3.600" y1="3.860" x2="3.600" y2="6.940" stroke="#d7d7d7" stroke-width="0.02"/>
<line x1="3.940" y1="3.860" x2="3.940" y2="6.940" stroke="#d7d7d7" stroke-width="0.02"/>
<line x1="4.280" y1="3.860" x2="4.280" y2="6.940" stroke="#d7d7d7" stroke-width="0.02"/>
<line x1="0.200" y1="3.860" x2="4.280" y2="3.860" stroke="#d7d7d7" stroke-width="0.02"/>
<line x1="0.200" y1="4.080" x2="4.280" y2="4.080" stroke="#d7d7d7" stroke-width="0.02"/>
<line x1="0.200" y1="4.300" x2="4.280" y2="4.300" stroke="#d7d7d7" stroke-width="0.02"/>
<line x1="0.200" y1="4.520" x2="4.280" y2="4.520" stroke="#d7d7d7" stroke-width="0.02"/>
<line x1="0.200" y1="4.740" x2="4.280" y2="4.740" stroke="#d7d7d7" stroke-width="0.02"/>
<line x1="0.200" y1="4.960" x2="4.280" y2="4.960" stroke="#d7d7d7" stroke-width="0.02"/>
<line x1="0.200" y1="5.180" x2="4.280" y2="5.180" stroke="#d7d7d7" stroke-width="0.02"/>
<line x1="0.200" y1="5.400" x2="4.280" y2="5.400" stroke="#d7d7d7" stroke-width="0.02"/>
<line x1="0.200" y1="5.620" x2="4.280" y2="5.620" stroke="#d7d7d7" stroke-width="0.02"/>
<line x1="0.200" y1="5.840" x2="4.280" y2="5.840" stroke="#d7d7d7" stroke-width="0.02"/>
<line x1="0.200" y1="6.060" x2="4.280" y2="6.060" stroke="#d7d7d7" stroke-width="0.02"/>
<line x1="0.200" y1="6.280" x2="4.280" y2="6.280" stroke="#d7d7d7" stroke-width="0.02"/>
<line x1="0.200" y1="6.500" x2="4.280" y2="6.500" stroke="#d7d7d7" stroke-width="0.02"/>
<line x1="0.200" y1="6.720" x2="4.280" y2="6.720" stroke="#d7d7d7" stroke-width="0.02"/>
<line x1="0.200" y1="6.940" x2="4.280" y2="6.940" stroke="#d7d7d7" stroke-width="0.02"/>
<line x1="0.200" y1="5.180" x2="4.280" y2="5.180" stroke="black" stroke-width="0.04"/>
<line x1="2.240" y1="3.860" x2="2.240" y2="6.940" stroke="black" stroke-width="0.04"/>
<path d="M0.241,7.005 L0.282,6.856 L0.322,6.713 L0.363,6.577 L0.404,6.447 L0.445,6.324 L0.486,6.206 L0.526,6.096 L0.567,5.991 L0.608,5.893 L0.649,5.801 L0.690,5.715 L0.730,5.636 L0.771,5.563 L0.812,5.497 L0.853,5.437 L0.894,5.383 L0.934,5.335 L0.975,5.294 L1.016,5.259 L1.057,5.231 L1.098,5.209 L1.138,5.193 L1.179,5.183 L1.220,5.180 L1.261,5.183 L1.302,5.193 L1.342,5.209 L1.383,5.231 L1.424,5.259 L1.465,5.294 L1.506,5.335 L1.546,5.383 L1.587,5.437 L1.628,5.497 L1.669,5.563 L1.710,5.636 L1.750,5.715 L1.791,5.801 L1.832,5.893 L1.873,5.991 L1.914,6.096 L1.954,6.206 L1.995,6.324 L2.036,6.447 L2.077,6.577 L2.118,6.713 L2.158,6.856 L2.199,7.005" fill="none" stroke="#007c91" stroke-width="0.06" stroke-linejoin="round" stroke-linecap="round"/>
<circle cx="1.220" cy="5.180" r="0.07" fill="#b22222"/>
<circle cx="0.880" cy="5.400" r="0.06" fill="#444"/>
<circle cx="1.560" cy="5.400" r="0.06" fill="#444"/>
<text x="4.83" y="3.80" font-size="0.22" font-family="Arial, sans-serif" font-weight="700">6.</text>
<line x1="4.930" y1="3.860" x2="4.930" y2="6.940" stroke="#d7d7d7" stroke-width="0.02"/>
<line x1="5.270" y1="3.860" x2="5.270" y2="6.940" stroke="#d7d7d7" stroke-width="0.02"/>
<line x1="5.610" y1="3.860" x2="5.610" y2="6.940" stroke="#d7d7d7" stroke-width="0.02"/>
<line x1="5.950" y1="3.860" x2="5.950" y2="6.940" stroke="#d7d7d7" stroke-width="0.02"/>
<line x1="6.290" y1="3.860" x2="6.290" y2="6.940" stroke="#d7d7d7" stroke-width="0.02"/>
<line x1="6.630" y1="3.860" x2="6.630" y2="6.940" stroke="#d7d7d7" stroke-width="0.02"/>
<line x1="6.970" y1="3.860" x2="6.970" y2="6.940" stroke="#d7d7d7" stroke-width="0.02"/>
<line x1="7.310" y1="3.860" x2="7.310" y2="6.940" stroke="#d7d7d7" stroke-width="0.02"/>
<line x1="7.650" y1="3.860" x2="7.650" y2="6.940" stroke="#d7d7d7" stroke-width="0.02"/>
<line x1="7.990" y1="3.860" x2="7.990" y2="6.940" stroke="#d7d7d7" stroke-width="0.02"/>
<line x1="8.330" y1="3.860" x2="8.330" y2="6.940" stroke="#d7d7d7" stroke-width="0.02"/>
<line x1="8.670" y1="3.860" x2="8.670" y2="6.940" stroke="#d7d7d7" stroke-width="0.02"/>
<line x1="9.010" y1="3.860" x2="9.010" y2="6.940" stroke="#d7d7d7" stroke-width="0.02"/>
<line x1="4.930" y1="3.860" x2="9.010" y2="3.860" stroke="#d7d7d7" stroke-width="0.02"/>
<line x1="4.930" y1="4.080" x2="9.010" y2="4.080" stroke="#d7d7d7" stroke-width="0.02"/>
<line x1="4.930" y1="4.300" x2="9.010" y2="4.300" stroke="#d7d7d7" stroke-width="0.02"/>
<line x1="4.930" y1="4.520" x2="9.010" y2="4.520" stroke="#d7d7d7" stroke-width="0.02"/>
<line x1="4.930" y1="4.740" x2="9.010" y2="4.740" stroke="#d7d7d7" stroke-width="0.02"/>
<line x1="4.930" y1="4.960" x2="9.010" y2="4.960" stroke="#d7d7d7" stroke-width="0.02"/>
<line x1="4.930" y1="5.180" x2="9.010" y2="5.180" stroke="#d7d7d7" stroke-width="0.02"/>
<line x1="4.930" y1="5.400" x2="9.010" y2="5.400" stroke="#d7d7d7" stroke-width="0.02"/>
<line x1="4.930" y1="5.620" x2="9.010" y2="5.620" stroke="#d7d7d7" stroke-width="0.02"/>
<line x1="4.930" y1="5.840" x2="9.010" y2="5.840" stroke="#d7d7d7" stroke-width="0.02"/>
<line x1="4.930" y1="6.060" x2="9.010" y2="6.060" stroke="#d7d7d7" stroke-width="0.02"/>
<line x1="4.930" y1="6.280" x2="9.010" y2="6.280" stroke="#d7d7d7" stroke-width="0.02"/>
<line x1="4.930" y1="6.500" x2="9.010" y2="6.500" stroke="#d7d7d7" stroke-width="0.02"/>
<line x1="4.930" y1="6.720" x2="9.010" y2="6.720" stroke="#d7d7d7" stroke-width="0.02"/>
<line x1="4.930" y1="6.940" x2="9.010" y2="6.940" stroke="#d7d7d7" stroke-width="0.02"/>
<line x1="4.930" y1="5.180" x2="9.010" y2="5.180" stroke="black" stroke-width="0.04"/>
<line x1="6.970" y1="3.860" x2="6.970" y2="6.940" stroke="black" stroke-width="0.04"/>
<path d="M6.888,3.751 L6.929,3.918 L6.970,4.080 L7.011,4.235 L7.052,4.384 L7.092,4.527 L7.133,4.663 L7.174,4.793 L7.215,4.916 L7.256,5.034 L7.296,5.144 L7.337,5.249 L7.378,5.347 L7.419,5.439 L7.460,5.525 L7.500,5.604 L7.541,5.677 L7.582,5.743 L7.623,5.803 L7.664,5.857 L7.704,5.905 L7.745,5.946 L7.786,5.981 L7.827,6.009 L7.868,6.031 L7.908,6.047 L7.949,6.057 L7.990,6.060 L8.031,6.057 L8.072,6.047 L8.112,6.031 L8.153,6.009 L8.194,5.981 L8.235,5.946 L8.276,5.905 L8.316,5.857 L8.357,5.803 L8.398,5.743 L8.439,5.677 L8.480,5.604 L8.520,5.525 L8.561,5.439 L8.602,5.347 L8.643,5.249 L8.684,5.144 L8.724,5.034 L8.765,4.916 L8.806,4.793 L8.847,4.663 L8.888,4.527 L8.928,4.384 L8.969,4.235 L9.010,4.080" fill="none" stroke="#007c91" stroke-width="0.06" stroke-linejoin="round" stroke-linecap="round"/>
<circle cx="7.990" cy="6.060" r="0.07" fill="#b22222"/>
<circle cx="7.650" cy="5.840" r="0.06" fill="#444"/>
<circle cx="8.330" cy="5.840" r="0.06" fill="#444"/>
<text x="9.56" y="3.80" font-size="0.22" font-family="Arial, sans-serif" font-weight="700">7.</text>
<line x1="9.660" y1="3.860" x2="9.660" y2="6.940" stroke="#d7d7d7" stroke-width="0.02"/>
<line x1="10.000" y1="3.860" x2="10.000" y2="6.940" stroke="#d7d7d7" stroke-width="0.02"/>
<line x1="10.340" y1="3.860" x2="10.340" y2="6.940" stroke="#d7d7d7" stroke-width="0.02"/>
<line x1="10.680" y1="3.860" x2="10.680" y2="6.940" stroke="#d7d7d7" stroke-width="0.02"/>
<line x1="11.020" y1="3.860" x2="11.020" y2="6.940" stroke="#d7d7d7" stroke-width="0.02"/>
<line x1="11.360" y1="3.860" x2="11.360" y2="6.940" stroke="#d7d7d7" stroke-width="0.02"/>
<line x1="11.700" y1="3.860" x2="11.700" y2="6.940" stroke="#d7d7d7" stroke-width="0.02"/>
<line x1="12.040" y1="3.860" x2="12.040" y2="6.940" stroke="#d7d7d7" stroke-width="0.02"/>
<line x1="12.380" y1="3.860" x2="12.380" y2="6.940" stroke="#d7d7d7" stroke-width="0.02"/>
<line x1="12.720" y1="3.860" x2="12.720" y2="6.940" stroke="#d7d7d7" stroke-width="0.02"/>
<line x1="13.060" y1="3.860" x2="13.060" y2="6.940" stroke="#d7d7d7" stroke-width="0.02"/>
<line x1="13.400" y1="3.860" x2="13.400" y2="6.940" stroke="#d7d7d7" stroke-width="0.02"/>
<line x1="13.740" y1="3.860" x2="13.740" y2="6.940" stroke="#d7d7d7" stroke-width="0.02"/>
<line x1="9.660" y1="3.860" x2="13.740" y2="3.860" stroke="#d7d7d7" stroke-width="0.02"/>
<line x1="9.660" y1="4.080" x2="13.740" y2="4.080" stroke="#d7d7d7" stroke-width="0.02"/>
<line x1="9.660" y1="4.300" x2="13.740" y2="4.300" stroke="#d7d7d7" stroke-width="0.02"/>
<line x1="9.660" y1="4.520" x2="13.740" y2="4.520" stroke="#d7d7d7" stroke-width="0.02"/>
<line x1="9.660" y1="4.740" x2="13.740" y2="4.740" stroke="#d7d7d7" stroke-width="0.02"/>
<line x1="9.660" y1="4.960" x2="13.740" y2="4.960" stroke="#d7d7d7" stroke-width="0.02"/>
<line x1="9.660" y1="5.180" x2="13.740" y2="5.180" stroke="#d7d7d7" stroke-width="0.02"/>
<line x1="9.660" y1="5.400" x2="13.740" y2="5.400" stroke="#d7d7d7" stroke-width="0.02"/>
<line x1="9.660" y1="5.620" x2="13.740" y2="5.620" stroke="#d7d7d7" stroke-width="0.02"/>
<line x1="9.660" y1="5.840" x2="13.740" y2="5.840" stroke="#d7d7d7" stroke-width="0.02"/>
<line x1="9.660" y1="6.060" x2="13.740" y2="6.060" stroke="#d7d7d7" stroke-width="0.02"/>
<line x1="9.660" y1="6.280" x2="13.740" y2="6.280" stroke="#d7d7d7" stroke-width="0.02"/>
<line x1="9.660" y1="6.500" x2="13.740" y2="6.500" stroke="#d7d7d7" stroke-width="0.02"/>
<line x1="9.660" y1="6.720" x2="13.740" y2="6.720" stroke="#d7d7d7" stroke-width="0.02"/>
<line x1="9.660" y1="6.940" x2="13.740" y2="6.940" stroke="#d7d7d7" stroke-width="0.02"/>
<line x1="9.660" y1="5.180" x2="13.740" y2="5.180" stroke="black" stroke-width="0.04"/>
<line x1="11.700" y1="3.860" x2="11.700" y2="6.940" stroke="black" stroke-width="0.04"/>
<path d="M10.639,3.751 L10.680,3.860 L10.721,3.962 L10.762,4.059 L10.802,4.148 L10.843,4.232 L10.884,4.309 L10.925,4.380 L10.966,4.444 L11.006,4.502 L11.047,4.554 L11.088,4.599 L11.129,4.638 L11.170,4.671 L11.210,4.697 L11.251,4.717 L11.292,4.731 L11.333,4.739 L11.374,4.740 L11.414,4.734 L11.455,4.723 L11.496,4.705 L11.537,4.681 L11.578,4.650 L11.618,4.613 L11.659,4.570 L11.700,4.520 L11.741,4.464 L11.782,4.402 L11.822,4.333 L11.863,4.258 L11.904,4.177 L11.945,4.089 L11.986,3.995 L12.026,3.895 L12.067,3.788" fill="none" stroke="#007c91" stroke-width="0.06" stroke-linejoin="round" stroke-linecap="round"/>
<circle cx="11.360" cy="4.740" r="0.07" fill="#b22222"/>
<circle cx="11.020" cy="4.520" r="0.06" fill="#444"/>
<circle cx="11.700" cy="4.520" r="0.06" fill="#444"/>
<text x="14.29" y="3.80" font-size="0.22" font-family="Arial, sans-serif" font-weight="700">8.</text>
<line x1="14.390" y1="3.860" x2="14.390" y2="6.940" stroke="#d7d7d7" stroke-width="0.02"/>
<line x1="14.730" y1="3.860" x2="14.730" y2="6.940" stroke="#d7d7d7" stroke-width="0.02"/>
<line x1="15.070" y1="3.860" x2="15.070" y2="6.940" stroke="#d7d7d7" stroke-width="0.02"/>
<line x1="15.410" y1="3.860" x2="15.410" y2="6.940" stroke="#d7d7d7" stroke-width="0.02"/>
<line x1="15.750" y1="3.860" x2="15.750" y2="6.940" stroke="#d7d7d7" stroke-width="0.02"/>
<line x1="16.090" y1="3.860" x2="16.090" y2="6.940" stroke="#d7d7d7" stroke-width="0.02"/>
<line x1="16.430" y1="3.860" x2="16.430" y2="6.940" stroke="#d7d7d7" stroke-width="0.02"/>
<line x1="16.770" y1="3.860" x2="16.770" y2="6.940" stroke="#d7d7d7" stroke-width="0.02"/>
<line x1="17.110" y1="3.860" x2="17.110" y2="6.940" stroke="#d7d7d7" stroke-width="0.02"/>
<line x1="17.450" y1="3.860" x2="17.450" y2="6.940" stroke="#d7d7d7" stroke-width="0.02"/>
<line x1="17.790" y1="3.860" x2="17.790" y2="6.940" stroke="#d7d7d7" stroke-width="0.02"/>
<line x1="18.130" y1="3.860" x2="18.130" y2="6.940" stroke="#d7d7d7" stroke-width="0.02"/>
<line x1="18.470" y1="3.860" x2="18.470" y2="6.940" stroke="#d7d7d7" stroke-width="0.02"/>
<line x1="14.390" y1="3.860" x2="18.470" y2="3.860" stroke="#d7d7d7" stroke-width="0.02"/>
<line x1="14.390" y1="4.080" x2="18.470" y2="4.080" stroke="#d7d7d7" stroke-width="0.02"/>
<line x1="14.390" y1="4.300" x2="18.470" y2="4.300" stroke="#d7d7d7" stroke-width="0.02"/>
<line x1="14.390" y1="4.520" x2="18.470" y2="4.520" stroke="#d7d7d7" stroke-width="0.02"/>
<line x1="14.390" y1="4.740" x2="18.470" y2="4.740" stroke="#d7d7d7" stroke-width="0.02"/>
<line x1="14.390" y1="4.960" x2="18.470" y2="4.960" stroke="#d7d7d7" stroke-width="0.02"/>
<line x1="14.390" y1="5.180" x2="18.470" y2="5.180" stroke="#d7d7d7" stroke-width="0.02"/>
<line x1="14.390" y1="5.400" x2="18.470" y2="5.400" stroke="#d7d7d7" stroke-width="0.02"/>
<line x1="14.390" y1="5.620" x2="18.470" y2="5.620" stroke="#d7d7d7" stroke-width="0.02"/>
<line x1="14.390" y1="5.840" x2="18.470" y2="5.840" stroke="#d7d7d7" stroke-width="0.02"/>
<line x1="14.390" y1="6.060" x2="18.470" y2="6.060" stroke="#d7d7d7" stroke-width="0.02"/>
<line x1="14.390" y1="6.280" x2="18.470" y2="6.280" stroke="#d7d7d7" stroke-width="0.02"/>
<line x1="14.390" y1="6.500" x2="18.470" y2="6.500" stroke="#d7d7d7" stroke-width="0.02"/>
<line x1="14.390" y1="6.720" x2="18.470" y2="6.720" stroke="#d7d7d7" stroke-width="0.02"/>
<line x1="14.390" y1="6.940" x2="18.470" y2="6.940" stroke="#d7d7d7" stroke-width="0.02"/>
<line x1="14.390" y1="5.180" x2="18.470" y2="5.180" stroke="black" stroke-width="0.04"/>
<line x1="16.430" y1="3.860" x2="16.430" y2="6.940" stroke="black" stroke-width="0.04"/>
<path d="M15.288,7.004 L15.328,6.829 L15.369,6.662 L15.410,6.500 L15.451,6.345 L15.492,6.196 L15.532,6.053 L15.573,5.917 L15.614,5.787 L15.655,5.664 L15.696,5.546 L15.736,5.436 L15.777,5.331 L15.818,5.233 L15.859,5.141 L15.900,5.055 L15.940,4.976 L15.981,4.903 L16.022,4.837 L16.063,4.777 L16.104,4.723 L16.144,4.675 L16.185,4.634 L16.226,4.599 L16.267,4.571 L16.308,4.549 L16.348,4.533 L16.389,4.523 L16.430,4.520 L16.471,4.523 L16.512,4.533 L16.552,4.549 L16.593,4.571 L16.634,4.599 L16.675,4.634 L16.716,4.675 L16.756,4.723 L16.797,4.777 L16.838,4.837 L16.879,4.903 L16.920,4.976 L16.960,5.055 L17.001,5.141 L17.042,5.233 L17.083,5.331 L17.124,5.436 L17.164,5.546 L17.205,5.664 L17.246,5.787 L17.287,5.917 L17.328,6.053 L17.368,6.196 L17.409,6.345 L17.450,6.500 L17.491,6.662 L17.532,6.829 L17.572,7.004" fill="none" stroke="#007c91" stroke-width="0.06" stroke-linejoin="round" stroke-linecap="round"/>
<circle cx="16.430" cy="4.520" r="0.07" fill="#b22222"/>
<circle cx="16.090" cy="4.740" r="0.06" fill="#444"/>
<circle cx="16.770" cy="4.740" r="0.06" fill="#444"/>
<text x="0.10" y="7.46" font-size="0.22" font-family="Arial, sans-serif" font-weight="700">9.</text>
<line x1="0.200" y1="7.520" x2="0.200" y2="10.600" stroke="#d7d7d7" stroke-width="0.02"/>
<line x1="0.540" y1="7.520" x2="0.540" y2="10.600" stroke="#d7d7d7" stroke-width="0.02"/>
<line x1="0.880" y1="7.520" x2="0.880" y2="10.600" stroke="#d7d7d7" stroke-width="0.02"/>
<line x1="1.220" y1="7.520" x2="1.220" y2="10.600" stroke="#d7d7d7" stroke-width="0.02"/>
<line x1="1.560" y1="7.520" x2="1.560" y2="10.600" stroke="#d7d7d7" stroke-width="0.02"/>
<line x1="1.900" y1="7.520" x2="1.900" y2="10.600" stroke="#d7d7d7" stroke-width="0.02"/>
<line x1="2.240" y1="7.520" x2="2.240" y2="10.600" stroke="#d7d7d7" stroke-width="0.02"/>
<line x1="2.580" y1="7.520" x2="2.580" y2="10.600" stroke="#d7d7d7" stroke-width="0.02"/>
<line x1="2.920" y1="7.520" x2="2.920" y2="10.600" stroke="#d7d7d7" stroke-width="0.02"/>
<line x1="3.260" y1="7.520" x2="3.260" y2="10.600" stroke="#d7d7d7" stroke-width="0.02"/>
<line x1="3.600" y1="7.520" x2="3.600" y2="10.600" stroke="#d7d7d7" stroke-width="0.02"/>
<line x1="3.940" y1="7.520" x2="3.940" y2="10.600" stroke="#d7d7d7" stroke-width="0.02"/>
<line x1="4.280" y1="7.520" x2="4.280" y2="10.600" stroke="#d7d7d7" stroke-width="0.02"/>
<line x1="0.200" y1="7.520" x2="4.280" y2="7.520" stroke="#d7d7d7" stroke-width="0.02"/>
<line x1="0.200" y1="7.740" x2="4.280" y2="7.740" stroke="#d7d7d7" stroke-width="0.02"/>
<line x1="0.200" y1="7.960" x2="4.280" y2="7.960" stroke="#d7d7d7" stroke-width="0.02"/>
<line x1="0.200" y1="8.180" x2="4.280" y2="8.180" stroke="#d7d7d7" stroke-width="0.02"/>
<line x1="0.200" y1="8.400" x2="4.280" y2="8.400" stroke="#d7d7d7" stroke-width="0.02"/>
<line x1="0.200" y1="8.620" x2="4.280" y2="8.620" stroke="#d7d7d7" stroke-width="0.02"/>
<line x1="0.200" y1="8.840" x2="4.280" y2="8.840" stroke="#d7d7d7" stroke-width="0.02"/>
<line x1="0.200" y1="9.060" x2="4.280" y2="9.060" stroke="#d7d7d7" stroke-width="0.02"/>
<line x1="0.200" y1="9.280" x2="4.280" y2="9.280" stroke="#d7d7d7" stroke-width="0.02"/>
<line x1="0.200" y1="9.500" x2="4.280" y2="9.500" stroke="#d7d7d7" stroke-width="0.02"/>
<line x1="0.200" y1="9.720" x2="4.280" y2="9.720" stroke="#d7d7d7" stroke-width="0.02"/>
<line x1="0.200" y1="9.940" x2="4.280" y2="9.940" stroke="#d7d7d7" stroke-width="0.02"/>
<line x1="0.200" y1="10.160" x2="4.280" y2="10.160" stroke="#d7d7d7" stroke-width="0.02"/>
<line x1="0.200" y1="10.380" x2="4.280" y2="10.380" stroke="#d7d7d7" stroke-width="0.02"/>
<line x1="0.200" y1="10.600" x2="4.280" y2="10.600" stroke="#d7d7d7" stroke-width="0.02"/>
<line x1="0.200" y1="8.840" x2="4.280" y2="8.840" stroke="black" stroke-width="0.04"/>
<line x1="2.240" y1="7.520" x2="2.240" y2="10.600" stroke="black" stroke-width="0.04"/>
<path d="M0.200,8.400 L0.241,8.502 L0.282,8.599 L0.322,8.688 L0.363,8.772 L0.404,8.849 L0.445,8.920 L0.486,8.984 L0.526,9.042 L0.567,9.094 L0.608,9.139 L0.649,9.178 L0.690,9.211 L0.730,9.237 L0.771,9.257 L0.812,9.271 L0.853,9.279 L0.894,9.280 L0.934,9.274 L0.975,9.263 L1.016,9.245 L1.057,9.221 L1.098,9.190 L1.138,9.153 L1.179,9.110 L1.220,9.060 L1.261,9.004 L1.302,8.942 L1.342,8.873 L1.383,8.798 L1.424,8.717 L1.465,8.629 L1.506,8.535 L1.546,8.435 L1.587,8.328 L1.628,8.215 L1.669,8.096 L1.710,7.970 L1.750,7.838 L1.791,7.700 L1.832,7.555" fill="none" stroke="#007c91" stroke-width="0.06" stroke-linejoin="round" stroke-linecap="round"/>
<circle cx="0.880" cy="9.280" r="0.07" fill="#b22222"/>
<circle cx="0.540" cy="9.060" r="0.06" fill="#444"/>
<circle cx="1.220" cy="9.060" r="0.06" fill="#444"/>
<text x="4.83" y="7.46" font-size="0.22" font-family="Arial, sans-serif" font-weight="700">10.</text>
<line x1="4.930" y1="7.520" x2="4.930" y2="10.600" stroke="#d7d7d7" stroke-width="0.02"/>
<line x1="5.270" y1="7.520" x2="5.270" y2="10.600" stroke="#d7d7d7" stroke-width="0.02"/>
<line x1="5.610" y1="7.520" x2="5.610" y2="10.600" stroke="#d7d7d7" stroke-width="0.02"/>
<line x1="5.950" y1="7.520" x2="5.950" y2="10.600" stroke="#d7d7d7" stroke-width="0.02"/>
<line x1="6.290" y1="7.520" x2="6.290" y2="10.600" stroke="#d7d7d7" stroke-width="0.02"/>
<line x1="6.630" y1="7.520" x2="6.630" y2="10.600" stroke="#d7d7d7" stroke-width="0.02"/>
<line x1="6.970" y1="7.520" x2="6.970" y2="10.600" stroke="#d7d7d7" stroke-width="0.02"/>
<line x1="7.310" y1="7.520" x2="7.310" y2="10.600" stroke="#d7d7d7" stroke-width="0.02"/>
<line x1="7.650" y1="7.520" x2="7.650" y2="10.600" stroke="#d7d7d7" stroke-width="0.02"/>
<line x1="7.990" y1="7.520" x2="7.990" y2="10.600" stroke="#d7d7d7" stroke-width="0.02"/>
<line x1="8.330" y1="7.520" x2="8.330" y2="10.600" stroke="#d7d7d7" stroke-width="0.02"/>
<line x1="8.670" y1="7.520" x2="8.670" y2="10.600" stroke="#d7d7d7" stroke-width="0.02"/>
<line x1="9.010" y1="7.520" x2="9.010" y2="10.600" stroke="#d7d7d7" stroke-width="0.02"/>
<line x1="4.930" y1="7.520" x2="9.010" y2="7.520" stroke="#d7d7d7" stroke-width="0.02"/>
<line x1="4.930" y1="7.740" x2="9.010" y2="7.740" stroke="#d7d7d7" stroke-width="0.02"/>
<line x1="4.930" y1="7.960" x2="9.010" y2="7.960" stroke="#d7d7d7" stroke-width="0.02"/>
<line x1="4.930" y1="8.180" x2="9.010" y2="8.180" stroke="#d7d7d7" stroke-width="0.02"/>
<line x1="4.930" y1="8.400" x2="9.010" y2="8.400" stroke="#d7d7d7" stroke-width="0.02"/>
<line x1="4.930" y1="8.620" x2="9.010" y2="8.620" stroke="#d7d7d7" stroke-width="0.02"/>
<line x1="4.930" y1="8.840" x2="9.010" y2="8.840" stroke="#d7d7d7" stroke-width="0.02"/>
<line x1="4.930" y1="9.060" x2="9.010" y2="9.060" stroke="#d7d7d7" stroke-width="0.02"/>
<line x1="4.930" y1="9.280" x2="9.010" y2="9.280" stroke="#d7d7d7" stroke-width="0.02"/>
<line x1="4.930" y1="9.500" x2="9.010" y2="9.500" stroke="#d7d7d7" stroke-width="0.02"/>
<line x1="4.930" y1="9.720" x2="9.010" y2="9.720" stroke="#d7d7d7" stroke-width="0.02"/>
<line x1="4.930" y1="9.940" x2="9.010" y2="9.940" stroke="#d7d7d7" stroke-width="0.02"/>
<line x1="4.930" y1="10.160" x2="9.010" y2="10.160" stroke="#d7d7d7" stroke-width="0.02"/>
<line x1="4.930" y1="10.380" x2="9.010" y2="10.380" stroke="#d7d7d7" stroke-width="0.02"/>
<line x1="4.930" y1="10.600" x2="9.010" y2="10.600" stroke="#d7d7d7" stroke-width="0.02"/>
<line x1="4.930" y1="8.840" x2="9.010" y2="8.840" stroke="black" stroke-width="0.04"/>
<line x1="6.970" y1="7.520" x2="6.970" y2="10.600" stroke="black" stroke-width="0.04"/>
<path d="M6.807,10.633 L6.848,10.505 L6.888,10.384 L6.929,10.269 L6.970,10.160 L7.011,10.058 L7.052,9.961 L7.092,9.872 L7.133,9.788 L7.174,9.711 L7.215,9.640 L7.256,9.576 L7.296,9.518 L7.337,9.466 L7.378,9.421 L7.419,9.382 L7.460,9.349 L7.500,9.323 L7.541,9.303 L7.582,9.289 L7.623,9.281 L7.664,9.280 L7.704,9.286 L7.745,9.297 L7.786,9.315 L7.827,9.339 L7.868,9.370 L7.908,9.407 L7.949,9.450 L7.990,9.500 L8.031,9.556 L8.072,9.618 L8.112,9.687 L8.153,9.762 L8.194,9.843 L8.235,9.931 L8.276,10.025 L8.316,10.125 L8.357,10.232 L8.398,10.345 L8.439,10.464 L8.480,10.590" fill="none" stroke="#007c91" stroke-width="0.06" stroke-linejoin="round" stroke-linecap="round"/>
<circle cx="7.650" cy="9.280" r="0.07" fill="#b22222"/>
<circle cx="7.310" cy="9.500" r="0.06" fill="#444"/>
<circle cx="7.990" cy="9.500" r="0.06" fill="#444"/>
<text x="9.56" y="7.46" font-size="0.22" font-family="Arial, sans-serif" font-weight="700">11.</text>
<line x1="9.660" y1="7.520" x2="9.660" y2="10.600" stroke="#d7d7d7" stroke-width="0.02"/>
<line x1="10.000" y1="7.520" x2="10.000" y2="10.600" stroke="#d7d7d7" stroke-width="0.02"/>
<line x1="10.340" y1="7.520" x2="10.340" y2="10.600" stroke="#d7d7d7" stroke-width="0.02"/>
<line x1="10.680" y1="7.520" x2="10.680" y2="10.600" stroke="#d7d7d7" stroke-width="0.02"/>
<line x1="11.020" y1="7.520" x2="11.020" y2="10.600" stroke="#d7d7d7" stroke-width="0.02"/>
<line x1="11.360" y1="7.520" x2="11.360" y2="10.600" stroke="#d7d7d7" stroke-width="0.02"/>
<line x1="11.700" y1="7.520" x2="11.700" y2="10.600" stroke="#d7d7d7" stroke-width="0.02"/>
<line x1="12.040" y1="7.520" x2="12.040" y2="10.600" stroke="#d7d7d7" stroke-width="0.02"/>
<line x1="12.380" y1="7.520" x2="12.380" y2="10.600" stroke="#d7d7d7" stroke-width="0.02"/>
<line x1="12.720" y1="7.520" x2="12.720" y2="10.600" stroke="#d7d7d7" stroke-width="0.02"/>
<line x1="13.060" y1="7.520" x2="13.060" y2="10.600" stroke="#d7d7d7" stroke-width="0.02"/>
<line x1="13.400" y1="7.520" x2="13.400" y2="10.600" stroke="#d7d7d7" stroke-width="0.02"/>
<line x1="13.740" y1="7.520" x2="13.740" y2="10.600" stroke="#d7d7d7" stroke-width="0.02"/>
<line x1="9.660" y1="7.520" x2="13.740" y2="7.520" stroke="#d7d7d7" stroke-width="0.02"/>
<line x1="9.660" y1="7.740" x2="13.740" y2="7.740" stroke="#d7d7d7" stroke-width="0.02"/>
<line x1="9.660" y1="7.960" x2="13.740" y2="7.960" stroke="#d7d7d7" stroke-width="0.02"/>
<line x1="9.660" y1="8.180" x2="13.740" y2="8.180" stroke="#d7d7d7" stroke-width="0.02"/>
<line x1="9.660" y1="8.400" x2="13.740" y2="8.400" stroke="#d7d7d7" stroke-width="0.02"/>
<line x1="9.660" y1="8.620" x2="13.740" y2="8.620" stroke="#d7d7d7" stroke-width="0.02"/>
<line x1="9.660" y1="8.840" x2="13.740" y2="8.840" stroke="#d7d7d7" stroke-width="0.02"/>
<line x1="9.660" y1="9.060" x2="13.740" y2="9.060" stroke="#d7d7d7" stroke-width="0.02"/>
<line x1="9.660" y1="9.280" x2="13.740" y2="9.280" stroke="#d7d7d7" stroke-width="0.02"/>
<line x1="9.660" y1="9.500" x2="13.740" y2="9.500" stroke="#d7d7d7" stroke-width="0.02"/>
<line x1="9.660" y1="9.720" x2="13.740" y2="9.720" stroke="#d7d7d7" stroke-width="0.02"/>
<line x1="9.660" y1="9.940" x2="13.740" y2="9.940" stroke="#d7d7d7" stroke-width="0.02"/>
<line x1="9.660" y1="10.160" x2="13.740" y2="10.160" stroke="#d7d7d7" stroke-width="0.02"/>
<line x1="9.660" y1="10.380" x2="13.740" y2="10.380" stroke="#d7d7d7" stroke-width="0.02"/>
<line x1="9.660" y1="10.600" x2="13.740" y2="10.600" stroke="#d7d7d7" stroke-width="0.02"/>
<line x1="9.660" y1="8.840" x2="13.740" y2="8.840" stroke="black" stroke-width="0.04"/>
<line x1="11.700" y1="7.520" x2="11.700" y2="10.600" stroke="black" stroke-width="0.04"/>
<path d="M12.149,7.480 L12.190,7.618 L12.230,7.750 L12.271,7.876 L12.312,7.995 L12.353,8.108 L12.394,8.215 L12.434,8.315 L12.475,8.409 L12.516,8.497 L12.557,8.578 L12.598,8.653 L12.638,8.722 L12.679,8.784 L12.720,8.840 L12.761,8.890 L12.802,8.933 L12.842,8.970 L12.883,9.001 L12.924,9.025 L12.965,9.043 L13.006,9.054 L13.046,9.060 L13.087,9.059 L13.128,9.051 L13.169,9.037 L13.210,9.017 L13.250,8.991 L13.291,8.958 L13.332,8.919 L13.373,8.874 L13.414,8.822 L13.454,8.764 L13.495,8.700 L13.536,8.629 L13.577,8.552 L13.618,8.468 L13.658,8.379 L13.699,8.282 L13.740,8.180" fill="none" stroke="#007c91" stroke-width="0.06" stroke-linejoin="round" stroke-linecap="round"/>
<circle cx="13.060" cy="9.060" r="0.07" fill="#b22222"/>
<circle cx="12.720" cy="8.840" r="0.06" fill="#444"/>
<circle cx="13.400" cy="8.840" r="0.06" fill="#444"/>
<text x="14.29" y="7.46" font-size="0.22" font-family="Arial, sans-serif" font-weight="700">12.</text>
<line x1="14.390" y1="7.520" x2="14.390" y2="10.600" stroke="#d7d7d7" stroke-width="0.02"/>
<line x1="14.730" y1="7.520" x2="14.730" y2="10.600" stroke="#d7d7d7" stroke-width="0.02"/>
<line x1="15.070" y1="7.520" x2="15.070" y2="10.600" stroke="#d7d7d7" stroke-width="0.02"/>
<line x1="15.410" y1="7.520" x2="15.410" y2="10.600" stroke="#d7d7d7" stroke-width="0.02"/>
<line x1="15.750" y1="7.520" x2="15.750" y2="10.600" stroke="#d7d7d7" stroke-width="0.02"/>
<line x1="16.090" y1="7.520" x2="16.090" y2="10.600" stroke="#d7d7d7" stroke-width="0.02"/>
<line x1="16.430" y1="7.520" x2="16.430" y2="10.600" stroke="#d7d7d7" stroke-width="0.02"/>
<line x1="16.770" y1="7.520" x2="16.770" y2="10.600" stroke="#d7d7d7" stroke-width="0.02"/>
<line x1="17.110" y1="7.520" x2="17.110" y2="10.600" stroke="#d7d7d7" stroke-width="0.02"/>
<line x1="17.450" y1="7.520" x2="17.450" y2="10.600" stroke="#d7d7d7" stroke-width="0.02"/>
<line x1="17.790" y1="7.520" x2="17.790" y2="10.600" stroke="#d7d7d7" stroke-width="0.02"/>
<line x1="18.130" y1="7.520" x2="18.130" y2="10.600" stroke="#d7d7d7" stroke-width="0.02"/>
<line x1="18.470" y1="7.520" x2="18.470" y2="10.600" stroke="#d7d7d7" stroke-width="0.02"/>
<line x1="14.390" y1="7.520" x2="18.470" y2="7.520" stroke="#d7d7d7" stroke-width="0.02"/>
<line x1="14.390" y1="7.740" x2="18.470" y2="7.740" stroke="#d7d7d7" stroke-width="0.02"/>
<line x1="14.390" y1="7.960" x2="18.470" y2="7.960" stroke="#d7d7d7" stroke-width="0.02"/>
<line x1="14.390" y1="8.180" x2="18.470" y2="8.180" stroke="#d7d7d7" stroke-width="0.02"/>
<line x1="14.390" y1="8.400" x2="18.470" y2="8.400" stroke="#d7d7d7" stroke-width="0.02"/>
<line x1="14.390" y1="8.620" x2="18.470" y2="8.620" stroke="#d7d7d7" stroke-width="0.02"/>
<line x1="14.390" y1="8.840" x2="18.470" y2="8.840" stroke="#d7d7d7" stroke-width="0.02"/>
<line x1="14.390" y1="9.060" x2="18.470" y2="9.060" stroke="#d7d7d7" stroke-width="0.02"/>
<line x1="14.390" y1="9.280" x2="18.470" y2="9.280" stroke="#d7d7d7" stroke-width="0.02"/>
<line x1="14.390" y1="9.500" x2="18.470" y2="9.500" stroke="#d7d7d7" stroke-width="0.02"/>
<line x1="14.390" y1="9.720" x2="18.470" y2="9.720" stroke="#d7d7d7" stroke-width="0.02"/>
<line x1="14.390" y1="9.940" x2="18.470" y2="9.940" stroke="#d7d7d7" stroke-width="0.02"/>
<line x1="14.390" y1="10.160" x2="18.470" y2="10.160" stroke="#d7d7d7" stroke-width="0.02"/>
<line x1="14.390" y1="10.380" x2="18.470" y2="10.380" stroke="#d7d7d7" stroke-width="0.02"/>
<line x1="14.390" y1="10.600" x2="18.470" y2="10.600" stroke="#d7d7d7" stroke-width="0.02"/>
<line x1="14.390" y1="8.840" x2="18.470" y2="8.840" stroke="black" stroke-width="0.04"/>
<line x1="16.430" y1="7.520" x2="16.430" y2="10.600" stroke="black" stroke-width="0.04"/>
<path d="M14.676,10.597 L14.716,10.433 L14.757,10.276 L14.798,10.125 L14.839,9.980 L14.880,9.842 L14.920,9.710 L14.961,9.584 L15.002,9.465 L15.043,9.352 L15.084,9.245 L15.124,9.145 L15.165,9.051 L15.206,8.963 L15.247,8.882 L15.288,8.807 L15.328,8.738 L15.369,8.676 L15.410,8.620 L15.451,8.570 L15.492,8.527 L15.532,8.490 L15.573,8.459 L15.614,8.435 L15.655,8.417 L15.696,8.406 L15.736,8.400 L15.777,8.401 L15.818,8.409 L15.859,8.423 L15.900,8.443 L15.940,8.469 L15.981,8.502 L16.022,8.541 L16.063,8.586 L16.104,8.638 L16.144,8.696 L16.185,8.760 L16.226,8.831 L16.267,8.908 L16.308,8.992 L16.348,9.081 L16.389,9.178 L16.430,9.280 L16.471,9.389 L16.512,9.504 L16.552,9.625 L16.593,9.753 L16.634,9.887 L16.675,10.028 L16.716,10.174 L16.756,10.328 L16.797,10.487 L16.838,10.653" fill="none" stroke="#007c91" stroke-width="0.06" stroke-linejoin="round" stroke-linecap="round"/>
<circle cx="15.750" cy="8.400" r="0.07" fill="#b22222"/>
<circle cx="15.410" cy="8.620" r="0.06" fill="#444"/>
<circle cx="16.090" cy="8.620" r="0.06" fill="#444"/>
</svg>
