<svg xmlns="http://www.w3.org/2000/svg" width="460" height="460" viewBox="0 0 460 460">
<rect width="100%" height="100%" fill="white" />
<line x1="34.0" y1="34.0" x2="34.0" y2="426.0" stroke="#d6e0e6" stroke-width="1" stroke-linecap="round" />
<line x1="73.2" y1="34.0" x2="73.2" y2="426.0" stroke="#d6e0e6" stroke-width="1" stroke-linecap="round" />
<line x1="112.4" y1="34.0" x2="112.4" y2="426.0" stroke="#d6e0e6" stroke-width="1" stroke-linecap="round" />
<line x1="151.6" y1="34.0" x2="151.6" y2="426.0" stroke="#d6e0e6" stroke-width="1" stroke-linecap="round" />
<line x1="190.8" y1="34.0" x2="190.8" y2="426.0" stroke="#d6e0e6" stroke-width="1" stroke-linecap="round" />
<line x1="230.0" y1="34.0" x2="230.0" y2="426.0" stroke="#d6e0e6" stroke-width="1" stroke-linecap="round" />
<line x1="269.2" y1="34.0" x2="269.2" y2="426.0" stroke="#d6e0e6" stroke-width="1" stroke-linecap="round" />
<line x1="308.4" y1="34.0" x2="308.4" y2="426.0" stroke="#d6e0e6" stroke-width="1" stroke-linecap="round" />
<line x1="347.6" y1="34.0" x2="347.6" y2="426.0" stroke="#d6e0e6" stroke-width="1" stroke-linecap="round" />
<line x1="386.8" y1="34.0" x2="386.8" y2="426.0" stroke="#d6e0e6" stroke-width="1" stroke-linecap="round" />
<line x1="426.0" y1="34.0" x2="426.0" y2="426.0" stroke="#d6e0e6" stroke-width="1" stroke-linecap="round" />
<line x1="34.0" y1="426.0" x2="426.0" y2="426.0" stroke="#d6e0e6" stroke-width="1" stroke-linecap="round" />
<line x1="34.0" y1="386.8" x2="426.0" y2="386.8" stroke="#d6e0e6" stroke-width="1" stroke-linecap="round" />
<line x1="34.0" y1="347.6" x2="426.0" y2="347.6" stroke="#d6e0e6" stroke-width="1" stroke-linecap="round" />
<line x1="34.0" y1="308.4" x2="426.0" y2="308.4" stroke="#d6e0e6" stroke-width="1" stroke-linecap="round" />
<line x1="34.0" y1="269.2" x2="426.0" y2="269.2" stroke="#d6e0e6" stroke-width="1" stroke-linecap="round" />
<line x1="34.0" y1="230.0" x2="426.0" y2="230.0" stroke="#d6e0e6" stroke-width="1" stroke-linecap="round" />
<line x1="34.0" y1="190.8" x2="426.0" y2="190.8" stroke="#d6e0e6" stroke-width="1" stroke-linecap="round" />
<line x1="34.0" y1="151.6" x2="426.0" y2="151.6" stroke="#d6e0e6" stroke-width="1" stroke-linecap="round" />
<line x1="34.0" y1="112.4" x2="426.0" y2="112.4" stroke="#d6e0e6" stroke-width="1" stroke-linecap="round" />
<line x1="34.0" y1="73.2" x2="426.0" y2="73.2" stroke="#d6e0e6" stroke-width="1" stroke-linecap="round" />
<line x1="34.0" y1="34.0" x2="426.0" y2="34.0" stroke="#d6e0e6" stroke-width="1" stroke-linecap="round" />
<line x1="230.0" y1="24.0" x2="230.0" y2="436.0" stroke="black" stroke-width="3" stroke-linecap="round" />
<line x1="24.0" y1="230.0" x2="436.0" y2="230.0" stroke="black" stroke-width="3" stroke-linecap="round" />
<polygon points="436,230.0 424,224.0 424,236.0" fill="black" />
<polygon points="230.0,24 224.0,36 236.0,36" fill="black" />
<line x1="34.0" y1="225.0" x2="34.0" y2="235.0" stroke="black" stroke-width="1" stroke-linecap="round" />
<text x="34.0" y="252.0" text-anchor="middle" font-size="14" font-weight="400" font-family="Arial, sans-serif">-5</text>
<line x1="73.2" y1="225.0" x2="73.2" y2="235.0" stroke="black" stroke-width="1" stroke-linecap="round" />
<text x="73.2" y="252.0" text-anchor="middle" font-size="14" font-weight="400" font-family="Arial, sans-serif">-4</text>
<line x1="112.4" y1="225.0" x2="112.4" y2="235.0" stroke="black" stroke-width="1" stroke-linecap="round" />
<text x="112.4" y="252.0" text-anchor="middle" font-size="14" font-weight="400" font-family="Arial, sans-serif">-3</text>
<line x1="151.6" y1="225.0" x2="151.6" y2="235.0" stroke="black" stroke-width="1" stroke-linecap="round" />
<text x="151.6" y="252.0" text-anchor="middle" font-size="14" font-weight="400" font-family="Arial, sans-serif">-2</text>
<line x1="190.8" y1="225.0" x2="190.8" y2="235.0" stroke="black" stroke-width="1" stroke-linecap="round" />
<text x="190.8" y="252.0" text-anchor="middle" font-size="14" font-weight="400" font-family="Arial, sans-serif">-1</text>
<line x1="230.0" y1="225.0" x2="230.0" y2="235.0" stroke="black" stroke-width="1" stroke-linecap="round" />
<line x1="269.2" y1="225.0" x2="269.2" y2="235.0" stroke="black" stroke-width="1" stroke-linecap="round" />
<text x="269.2" y="252.0" text-anchor="middle" font-size="14" font-weight="400" font-family="Arial, sans-serif">1</text>
<line x1="308.4" y1="225.0" x2="308.4" y2="235.0" stroke="black" stroke-width="1" stroke-linecap="round" />
<text x="308.4" y="252.0" text-anchor="middle" font-size="14" font-weight="400" font-family="Arial, sans-serif">2</text>
<line x1="347.6" y1="225.0" x2="347.6" y2="235.0" stroke="black" stroke-width="1" stroke-linecap="round" />
<text x="347.6" y="252.0" text-anchor="middle" font-size="14" font-weight="400" font-family="Arial, sans-serif">3</text>
<line x1="386.8" y1="225.0" x2="386.8" y2="235.0" stroke="black" stroke-width="1" stroke-linecap="round" />
<text x="386.8" y="252.0" text-anchor="middle" font-size="14" font-weight="400" font-family="Arial, sans-serif">4</text>
<line x1="426.0" y1="225.0" x2="426.0" y2="235.0" stroke="black" stroke-width="1" stroke-linecap="round" />
<text x="426.0" y="252.0" text-anchor="middle" font-size="14" font-weight="400" font-family="Arial, sans-serif">5</text>
<line x1="225.0" y1="426.0" x2="235.0" y2="426.0" stroke="black" stroke-width="1" stroke-linecap="round" />
<text x="220.0" y="431.0" text-anchor="end" font-size="14" font-weight="400" font-family="Arial, sans-serif">-5</text>
<line x1="225.0" y1="386.8" x2="235.0" y2="386.8" stroke="black" stroke-width="1" stroke-linecap="round" />
<text x="220.0" y="391.8" text-anchor="end" font-size="14" font-weight="400" font-family="Arial, sans-serif">-4</text>
<line x1="225.0" y1="347.6" x2="235.0" y2="347.6" stroke="black" stroke-width="1" stroke-linecap="round" />
<text x="220.0" y="352.6" text-anchor="end" font-size="14" font-weight="400" font-family="Arial, sans-serif">-3</text>
<line x1="225.0" y1="308.4" x2="235.0" y2="308.4" stroke="black" stroke-width="1" stroke-linecap="round" />
<text x="220.0" y="313.4" text-anchor="end" font-size="14" font-weight="400" font-family="Arial, sans-serif">-2</text>
<line x1="225.0" y1="269.2" x2="235.0" y2="269.2" stroke="black" stroke-width="1" stroke-linecap="round" />
<text x="220.0" y="274.2" text-anchor="end" font-size="14" font-weight="400" font-family="Arial, sans-serif">-1</text>
<line x1="225.0" y1="230.0" x2="235.0" y2="230.0" stroke="black" stroke-width="1" stroke-linecap="round" />
<line x1="225.0" y1="190.8" x2="235.0" y2="190.8" stroke="black" stroke-width="1" stroke-linecap="round" />
<text x="220.0" y="195.8" text-anchor="end" font-size="14" font-weight="400" font-family="Arial, sans-serif">1</text>
<line x1="225.0" y1="151.6" x2="235.0" y2="151.6" stroke="black" stroke-width="1" stroke-linecap="round" />
<text x="220.0" y="156.6" text-anchor="end" font-size="14" font-weight="400" font-family="Arial, sans-serif">2</text>
<line x1="225.0" y1="112.4" x2="235.0" y2="112.4" stroke="black" stroke-width="1" stroke-linecap="round" />
<text x="220.0" y="117.4" text-anchor="end" font-size="14" font-weight="400" font-family="Arial, sans-serif">3</text>
<line x1="225.0" y1="73.2" x2="235.0" y2="73.2" stroke="black" stroke-width="1" stroke-linecap="round" />
<text x="220.0" y="78.2" text-anchor="end" font-size="14" font-weight="400" font-family="Arial, sans-serif">4</text>
<line x1="225.0" y1="34.0" x2="235.0" y2="34.0" stroke="black" stroke-width="1" stroke-linecap="round" />
<text x="220.0" y="39.0" text-anchor="end" font-size="14" font-weight="400" font-family="Arial, sans-serif">5</text>
<text x="444.0" y="222.0" text-anchor="start" font-size="16" font-weight="700" font-family="Arial, sans-serif">x</text>
<text x="240.0" y="16.0" text-anchor="start" font-size="16" font-weight="700" font-family="Arial, sans-serif">y</text>
<line x1="177.7" y1="34.0" x2="426.0" y2="406.4" stroke="#0b78b6" stroke-width="6" stroke-linecap="round" />
<circle cx="230.0" cy="112.4" r="5" fill="#d93535" stroke="white" stroke-width="1.5" />
<circle cx="308.4" cy="230.0" r="5" fill="#d93535" stroke="white" stroke-width="1.5" />
<circle cx="386.8" cy="347.6" r="5" fill="#d93535" stroke="white" stroke-width="1.5" />
</svg>